<?xml version="1.0" encoding="utf-8"?>
<svg xmlns="http://www.w3.org/2000/svg" xmlns:xlink="http://www.w3.org/1999/xlink" version= "1.1" width="1618px" height="1000px" viewBox="-350 195 1618 1000">
<g id="layer1">
<g style="fill:rgb(185,59,123); fill-opacity:1.0; stroke-linejoin: miter">
<path d="M-357.7303,190.65746L1273.6646,190.65848L1273.6646,1209.5472L-357.7303,1209.5482L-357.7303,190.65746"/>
</g>
<g style="fill:rgb(255,255,255); fill-opacity:1.0; stroke-linejoin: miter">
<path d="M103.11103,412.70563L125.57415,409.1417L148.03728,405.57788Q199.17914,727.8809,250.32103,1050.184Q227.85806,1053.7488,205.3951,1057.3137Q154.25305,735.00964,103.11103,412.70563"/>
</g>
<g style="fill:rgb(0,188,233); fill-opacity:1.0; stroke-linejoin: miter">
<path d="M53.439938,425.241L95.47931,418.5709L137.5187,411.90073Q188.71898,734.57184,239.91925,1057.2429Q197.88002,1063.9141,155.84077,1070.5851L53.439938,425.241"/>
</g>
<g style="fill:rgb(0,0,0); fill-opacity:0.14901961; stroke-linejoin: miter">
<path d="M1101.8394,1061.4817L1096.2297,1064.4442Q1087.367,1066.4337,1070.9175,1068.2463Q1023.15576,1072.6226,1004.4992,1073.2855Q948.8407,1076.3793,862.83575,1078.7651Q751.59564,1081.4692,725.2469,1081.6321Q628.3952,1083.0712,517.87476,1083.2505Q374.34525,1083.2382,349.18286,1082.7327Q319.3142,1082.6763,199.87033,1080.7773Q107.80359,1079.0693,35.670162,1076.2834Q-224.23622,1065.3225,-68.387024,1052.1355Q-62.506428,1051.2008,16.321201,1047.4512Q87.590126,1044.4727,178.14139,1042.5952Q313.2362,1039.8052,487.32318,1039.649Q545.3521,1039.701,599.04877,1040.0457Q729.49915,1041.1636,750.3904,1041.7383Q844.786,1043.3057,921.8518,1046.0437Q960.3847,1047.4126,990.6801,1048.9355Q1010.97626,1049.6008,1063.0322,1053.8508Q1098.9108,1057.3584,1101.8394,1061.4817"/>
</g>
<g style="fill:url(#grad0); fill-opacity:1.0; stroke-linejoin: miter">
<path d="M459.7,405.0852C458.07468,405.28192,456.45346,405.5109,454.73746,405.7677C453.35736,405.9673,451.92917,406.17273,450.39603,406.4564C450.07416,406.49536,449.74017,406.56836,449.40616,406.64136C411.4565,413.07983,381.37836,431.2684,363.36633,458.49506C352.89584,474.37558,346.7242,493.26257,345.4666,513.6286C344.3507,532.1975,347.0098,551.4684,353.51273,571.3357C357.38486,583.2269,358.81552,586.0093,369.262,602.03546C376.62067,613.32513,378.80167,617.0454,381.75073,623.33356C385.9276,632.34717,387.12802,638.48816,386.5218,648.04767C386.01724,655.2113,384.70453,667.0279,383.76477,672.88885C383.5457,673.9114,383.03607,677.255,382.548,680.23663C381.6947,685.5972,381.37543,687.5464,379.50656,697.6017L379.4427,697.6124C377.10458,703.1175,373.8062,709.5904,369.74707,716.2536C366.13818,722.4543,362.9668,732.9448,363.1675,739.729C363.1513,749.03784,360.97324,754.37933,353.59024,762.1796C348.3332,767.7139,343.65552,773.1786,342.91953,774.2474C342.16556,775.3018,339.06113,778.9269,336.14026,781.909C317.15854,800.04443,282.05505,855.0882,283.57205,864.1134L282.97687,864.18805Q379.6726,935.31085,498.88235,925.07806Q501.05872,924.8475,503.21503,924.5866Q558.8282,917.85486,605.908,894.84894L607.7428,894.63C607.5382,894.4234,607.3359,894.23566,607.15155,894.06195C593.61426,882.31213,589.4518,872.2029,583.42523,836.8485C575.16986,790.08923,563.32983,762.2799,541.53455,739.90405C534.4111,732.7168,534.3599,732.42896,540.45013,718.9402C540.67755,718.3903,540.90485,717.8401,541.1281,717.25806L541.1768,717.25494Q539.7928,716.88086,538.367,716.433L538.3351,716.4393C539.24286,713.01276,540.13336,709.9822,541.0461,707.40643C542.4975,703.34454,545.0398,698.4486,546.5079,696.8178L547.61835,695.6058L571.71655,696.1342L595.8949,696.6528L598.4306,696.0193C601.6544,695.2698,603.51495,694.5877,606.21405,693.28107C612.07007,690.4008,617.8279,684.28284,619.28284,679.3067C620.43677,675.21576,619.828,670.99524,616.51447,660.21204C614.19324,652.77014,614.17377,652.60895,614.3311,650.40234C614.64453,647.32715,616.08856,644.6873,619.9794,640.4118C623.24866,636.7998,623.5964,636.3001,623.6146,635.2367C623.6557,633.9581,622.9548,632.7533,620.71124,630.1348C618.3754,627.4296,617.5225,626.0469,617.8269,625.3243C617.9,625.1196,618.78375,624.32697,619.7917,623.6171C624.40674,620.3317,625.81085,618.57806,625.9278,615.90234C626.00507,614.1133,625.53546,612.92944,623.3376,609.88086C621.55,607.38684,620.91614,605.9287,620.7035,604.30536C620.6178,603.59735,620.12463,601.6813,619.6646,600.03925C618.6368,596.5389,618.5786,594.97845,619.4219,593.7172C620.37683,592.1647,622.1515,591.313,625.785,590.70996C626.1028,590.6389,626.4207,590.5675,626.77484,590.5247C626.96606,590.48553,627.15894,590.4621,627.3683,590.4367C627.80273,590.3842,628.25525,590.34546,628.7219,590.289C628.82025,590.29364,628.91693,590.28186,629.01355,590.27014C629.1905,590.2488,629.38165,590.20917,629.5586,590.1878C630.85425,589.9658,631.9901,589.5018,634.60046,588.27167C640.7865,585.2859,643.2776,583.20465,644.2408,580.10016C645.03253,577.6041,644.387,574.5637,641.98914,569.7273C638.9489,563.6294,634.50446,557.2606,621.33264,540.0294C613.17737,529.30975,608.8376,523.40173,605.8716,518.8624L604.08295,516.0909L604.84393,514.2844C607.46936,508.18683,607.8336,502.42813,606.229,493.2175C603.6866,478.55283,597.7904,464.50656,589.21027,452.43405C582.6236,443.2061,573.81573,434.37762,564.38684,427.56738C547.3154,415.21658,524.9457,407.1152,501.38773,404.70898C499.15683,404.4893,496.79535,404.26886,496.084,404.1918C493.71664,403.9232,476.40857,403.7812,472.92154,403.9748C467.71707,404.2781,463.723,404.59818,459.7,405.0852 Z M460.93024,433.46048Q497.29773,429.05862,527.7766,450.8735Q558.0575,474.01822,564.1473,511.65082Q569.2129,549.4563,546.8258,580.33124Q524.10236,610.31573,486.1474,616.5753L484.86035,616.7339Q447.65585,621.2344,417.34286,599.1712Q387.499,576.39813,381.2629,538.6362Q376.1992,500.8468,398.58224,469.93973Q421.30768,439.97107,459.22656,433.68314L459.243,433.6837Q460.09354,433.5618,460.93024,433.46048 Z"/>
</g>
<g style="fill:url(#grad1); fill-opacity:1.0; stroke-linejoin: miter">
<path d="M575.72906,515.7982L576.46405,529.5799Q574.9261,571.6843,546.19977,600.2935Q517.2518,628.9095,473.39743,629.47125Q431.293,627.9331,402.6839,599.207Q393.50632,589.91284,386.90472,578.4419L381.08163,566.5322Q375.9698,554.131,374.24142,540.18604Q370.14008,497.2455,395.12613,465.3779Q420.11227,433.51022,462.7913,427.24814Q505.73184,423.1468,537.59955,448.13306Q569.46716,473.1191,575.72906,515.7982"/>
</g>
<g style="fill:rgb(255,255,255); fill-opacity:1.0; stroke-linejoin: miter">
<path d="M459.7,405.0852C458.07468,405.28192,456.45346,405.5109,454.73746,405.7677C453.35736,405.9673,451.92917,406.17273,450.39603,406.4564C450.07416,406.49536,449.74017,406.56836,449.40616,406.64136C411.4565,413.07983,381.37836,431.2684,363.36633,458.49506C353.77414,473.04355,347.78986,490.11517,345.8864,508.53558Q346.5272,508.457,347.1669,508.37955Q361.85828,506.6013,376.05325,505.48395L376.05328,505.48456Q376.05325,505.48395,376.05322,505.48404Q379.28156,505.22964,382.4817,505.0099L382.48178,505.01065Q382.48166,505.01004,382.48166,505.01016Q422.76392,502.24344,458.98276,504.8836Q501.0935,511.43976,506.95502,516.16003Q521.32465,522.0773,532.98615,531.6001Q544.5655,541.2323,553.4362,554.4705L557.63727,561.52985L557.6374,561.53046Q557.6363,561.5321,557.63525,561.53436L561.753,568.4462Q563.4147,571.6385,564.98456,574.95264L564.9846,574.9533Q564.9834,574.95496,564.9821,574.95715Q570.69183,587.00183,575.18604,600.65955Q586.39,633.0813,595.70233,696.64923L595.8949,696.6528L598.4306,696.0193C601.6544,695.2698,603.51495,694.5877,606.21405,693.28107C612.07007,690.4008,617.8279,684.28284,619.28284,679.3067C620.43677,675.21576,619.828,670.99524,616.51447,660.21204C614.19324,652.77014,614.17377,652.60895,614.3311,650.40234C614.64453,647.32715,616.08856,644.6873,619.9794,640.4118C623.24866,636.7998,623.5964,636.3001,623.6146,635.2367C623.6557,633.9581,622.9548,632.7533,620.71124,630.1348C618.3754,627.4296,617.5225,626.0469,617.8269,625.3243C617.9,625.1196,618.78375,624.32697,619.7917,623.6171C624.40674,620.3317,625.81085,618.57806,625.9278,615.90234C626.00507,614.1133,625.53546,612.92944,623.3376,609.88086C621.55,607.38684,620.91614,605.9287,620.7035,604.30536C620.6178,603.59735,620.12463,601.6813,619.6646,600.03925C618.6368,596.5389,618.5786,594.97845,619.4219,593.7172C620.37683,592.1647,622.1515,591.313,625.785,590.70996C626.1028,590.6389,626.4207,590.5675,626.77484,590.5247C626.96606,590.48553,627.15894,590.4621,627.3683,590.4367C627.80273,590.3842,628.25525,590.34546,628.7219,590.289C628.82025,590.29364,628.91693,590.28186,629.01355,590.27014C629.1905,590.2488,629.38165,590.20917,629.5586,590.1878C630.85425,589.9658,631.9901,589.5018,634.60046,588.27167C640.7865,585.2859,643.2776,583.20465,644.2408,580.10016C645.03253,577.6041,644.387,574.5637,641.98914,569.7273C638.9489,563.6294,634.50446,557.2606,621.33264,540.0294C613.17737,529.30975,608.8376,523.40173,605.8716,518.8624L604.08295,516.0909L604.84393,514.2844C607.46936,508.18683,607.8336,502.42813,606.229,493.2175C603.6866,478.55283,597.7904,464.50656,589.21027,452.43405C582.6236,443.2061,573.81573,434.37762,564.38684,427.56738C547.3154,415.21658,524.9457,407.1152,501.38773,404.70898C499.15683,404.4893,496.79535,404.26886,496.084,404.1918C493.71664,403.9232,476.40857,403.7812,472.92154,403.9748C467.71707,404.2781,463.723,404.59818,459.7,405.0852 Z"/>
</g>
<g style="fill:rgb(0,0,0); fill-opacity:1.0; stroke-linejoin: miter">
<path d="M459.7,405.0852C458.07468,405.28192,456.45346,405.5109,454.73746,405.7677C453.35736,405.9673,451.92917,406.17273,450.39603,406.4564C450.07416,406.49536,449.74017,406.56836,449.40616,406.64136C418.65875,411.858,393.07858,424.78778,374.89664,443.98862Q398.2022,446.80704,420.764,448.66147L420.7641,448.66214Q420.7636,448.66168,420.76318,448.66202Q430.0133,449.42172,439.13605,450.0197Q477.53552,451.8739,496.89185,449.53094Q497.07803,449.50842,497.26257,449.48553Q500.26004,449.20856,503.32983,448.83698Q511.67087,447.8274,520.5456,446.11948Q520.5455,446.11935,520.5452,446.11932L520.5493,446.11948Q533.4594,443.63428,547.49884,439.67184Q557.423,436.88583,570.49786,432.33826C568.5054,430.6614,566.4612,429.0655,564.38684,427.56738C547.3154,415.21658,524.9457,407.1152,501.38773,404.70898C499.15683,404.4893,496.79535,404.26886,496.084,404.1918C493.71664,403.9232,476.40857,403.7812,472.92154,403.9748C467.71707,404.2781,463.723,404.59818,459.7,405.0852 Z"/>
</g>
<g style="fill:rgb(52,104,117); fill-opacity:0.99607843; stroke-linejoin: miter">
<path d="M631.642,685.7999L631.642,685.8002L631.642,685.80035L631.642,685.7999"/>
</g>
<g style="fill:rgb(52,104,117); fill-opacity:1.0; stroke-linejoin: miter">
<path d="M414.4193,544.3793L414.41928,544.3794L414.4192,544.37946L414.41928,544.3794L414.4193,544.3793L414.41928,544.3794L414.4192,544.37946Q414.41928,544.3794,414.4193,544.3793"/>
</g>
<g style="fill:rgb(52,104,117); fill-opacity:0.99607843; stroke-linejoin: miter">
<path d="M414.4193,544.3793L414.41928,544.3794L414.4192,544.37946L414.41928,544.3794L414.4193,544.3793L414.41928,544.3794L414.4192,544.37946Q414.41928,544.3794,414.4193,544.3793"/>
</g>
<g style="fill:url(#grad2); fill-opacity:1.0; stroke-linejoin: miter">
<path d="M604.67285,496.72583Q599.6951,497.32843,594.38007,498.65103Q575.4035,504.01657,564.8583,515.31537Q564.7274,515.4556,564.59845,515.596Q564.59863,515.59784,564.5989,515.5999L564.5946,515.601Q554.3469,526.76636,557.0079,538.69366Q558.0606,542.58344,560.59656,545.7449L562.3805,547.6013L562.38055,547.6019Q562.38,547.6033,562.37946,547.6053L563.4413,548.7052Q566.6255,551.4735,570.9192,553.3977Q583.05,558.7715,599.6987,556.7565Q601.4125,556.54895,603.17395,556.2632Q616.88257,553.59753,627.0589,547.5752C625.3606,545.31323,623.46045,542.8131,621.33264,540.0294C613.17737,529.30975,608.8376,523.40173,605.8716,518.8624L604.08295,516.0909L604.84393,514.2844C607.1424,508.9464,607.7079,503.86795,606.7364,496.5058Q605.7145,496.59967,604.67285,496.72583 Z"/>
</g>
<g style="fill:rgb(52,104,117); fill-opacity:0.6313726; stroke-linejoin: miter">
<path d="M500.92487,519.93176L604.5115,473.8991Q614.3512,488.1732,623.0177,502.24503Q626.218,507.3086,632.4815,519.7776Q635.59656,527.8594,636.3135,535.55774Q636.89465,539.33765,634.24084,552.47626L508.01065,576.56915L500.92487,519.93176"/>
</g>
<g style="fill:rgb(0,0,0); fill-opacity:1.0; stroke-linejoin: miter">
<path d="M525.5002,536.12256L526.7332,544.182Q528.27637,569.025,513.0507,587.5133Q497.69446,606.0189,471.94363,608.89636Q447.0994,610.4374,428.60992,595.2095Q410.104,579.85156,407.2263,554.1012Q405.68488,529.2582,420.91177,510.7711Q436.26834,492.2675,462.01767,489.3911Q486.86008,487.8505,505.34854,503.07672Q511.28415,508.00757,515.8318,514.36774L519.9473,521.03125Q523.6734,528.0249,525.5002,536.12256"/>
</g>
<g style="fill:rgb(255,255,255); fill-opacity:1.0; stroke-linejoin: miter">
<path d="M479.4889,546.8561L479.77362,548.7156Q480.1303,554.44727,476.61774,558.71326Q473.0752,562.9832,467.13422,563.6477Q461.4024,564.0039,457.13626,560.4912Q452.86618,556.94836,452.2014,551.00745Q451.84476,545.27576,455.35736,541.0099Q458.8999,536.7401,464.84082,536.0757Q470.57257,535.7196,474.83878,539.2322Q476.2084,540.36975,477.25778,541.837L478.20746,543.37427Q479.0673,544.9878,479.4889,546.8561"/>
</g>
<g style="fill:rgb(255,255,255); fill-opacity:1.0; stroke-linejoin: miter">
<path d="M393.18146,541.7617L393.18146,541.7617L393.18146,541.7618L393.18146,541.7617L393.18146,541.7617L393.18146,541.7617L393.18146,541.7618Q393.18146,541.7617,393.18146,541.7617"/>
</g>
<g style="fill:rgb(101,255,0); fill-opacity:1.0; stroke-linejoin: miter">
<path d="M370.47583,448.89102L370.4758,448.8912L370.4758,448.89142L370.4758,448.8912L370.47583,448.89102L370.4758,448.8912L370.4758,448.89142Q370.4758,448.8912,370.47583,448.89102"/>
</g>
<g style="fill:rgb(101,255,0); fill-opacity:1.0; stroke-linejoin: miter">
<path d="M378.5547,478.8453L378.55463,478.84546L378.55463,478.84564L378.55463,478.84546L378.5547,478.8453L378.55463,478.84546L378.55463,478.84564Q378.55463,478.84546,378.5547,478.8453"/>
</g>
<g style="fill:rgb(255,255,255); fill-opacity:1.0; stroke-linejoin: miter">
<path d="M382.604,679.90826C382.58362,680.0188,382.56583,680.128,382.548,680.23663C381.6947,685.5972,381.37543,687.5464,379.50656,697.6017L379.4427,697.6124C378.39502,700.07916,377.15457,702.7401,375.73932,705.5256L423.8922,718.02563L450.75122,728.12445L481.99405,725.165L526.3597,725.9812L537.4356,725.8749C538.16425,724.021,539.17194,721.7713,540.45013,718.9402C540.67755,718.3903,540.90485,717.8401,541.1281,717.25806L541.1768,717.25494Q539.7928,716.88086,538.367,716.433L538.3351,716.4393C539.24286,713.01276,540.13336,709.9822,541.0461,707.40643C541.55707,705.9763,542.20337,704.44275,542.89026,702.985L538.8947,701.87213L452.51718,698.67474L382.604,679.90826 Z M519.10657,708.11615Q518.9688,708.5143,518.8348,708.9121L518.83154,708.91315Q518.9688,708.5143,519.1029,708.1166 Z M502.8629,708.4521L502.8629,708.45264C502.86398,708.4521,502.86514,708.4521,502.86624,708.4521L498.13223,722.50073L498.13235,722.5015L502.8627,708.4524L502.85925,708.4535L502.8593,708.4525 Z M535.4693,707.35736L535.4693,707.358L535.4693,707.35736L530.78217,721.2866L535.47296,707.3571L535.477,707.35736L530.78033,721.29193L530.7736,721.3119L530.7734,721.3127L530.7819,721.287L530.7786,721.2972L530.78033,721.29193L530.7811,721.28973L530.78217,721.2866L530.78204,721.28687L535.4693,707.35736L535.4693,707.358L535.4693,707.35736 Z"/>
</g>
<g style="fill:rgb(101,255,0); fill-opacity:1.0; stroke-linejoin: miter">
<path d="M470.20972,707.3138L465.51736,721.25L470.20654,707.3142 Z"/>
</g>
<g style="fill:rgb(101,255,0); fill-opacity:1.0; stroke-linejoin: miter">
<path d="M535.473,707.3569L530.7736,721.3119L535.4693,707.35736 Z"/>
</g>
<g style="fill:rgb(101,255,0); fill-opacity:1.0; stroke-linejoin: miter">
<path d="M502.8629,708.4521L498.12592,722.5195L502.8593,708.4525 Z"/>
</g>
<g style="fill:rgb(101,255,0); fill-opacity:1.0; stroke-linejoin: miter">
<path d="M470.20972,707.3138L465.51736,721.25L470.20654,707.3142 Z"/>
</g>
<g style="fill:rgb(101,255,0); fill-opacity:1.0; stroke-linejoin: miter">
<path d="M519.10297,708.1163Q518.96893,708.51416,518.8348,708.9121L518.83154,708.91315Q518.9654,708.51465,519.0993,708.1167 Z"/>
</g>
<g style="fill:rgb(124,227,255); fill-opacity:1.0; stroke-linejoin: miter">
<path d="M397.9292,689.32556L400.89493,690.32355L403.8607,691.3216Q400.7738,700.4955,397.68695,709.66956Q394.72107,708.6717,391.75522,707.6739Q394.84222,698.49963,397.9292,689.32556"/>
</g>
<g style="fill:rgb(124,227,255); fill-opacity:1.0; stroke-linejoin: miter">
<path d="M414.7819,694.4656L420.71338,696.46173L414.5396,714.8095L408.60785,712.81384L414.7819,694.4656"/>
</g>
<g style="fill:rgb(124,227,255); fill-opacity:1.0; stroke-linejoin: miter">
<path d="M448.20804,702.439L451.1738,703.43713L454.13956,704.4352Q451.0526,713.609,447.96576,722.78296Q444.99985,721.7851,442.03406,720.7873Q445.12103,711.61316,448.20804,702.439"/>
</g>
<g style="fill:rgb(124,227,255); fill-opacity:1.0; stroke-linejoin: miter">
<path d="M431.51422,698.6111L437.44568,700.6072L431.2719,718.95514L425.34015,716.95935L431.51422,698.6111"/>
</g>
<g style="fill:rgb(124,227,255); fill-opacity:1.0; stroke-linejoin: miter">
<path d="M464.65158,704.199L470.58307,706.1952L464.4093,724.54297L458.47763,722.5473L464.65158,704.199"/>
</g>
<g style="fill:rgb(124,227,255); fill-opacity:1.0; stroke-linejoin: miter">
<path d="M480.95886,704.83295L483.92456,705.83105L486.8903,706.82916Q483.80344,716.0031,480.7166,725.17706Q477.7507,724.1792,474.78482,723.18134Q477.87186,714.0072,480.95886,704.83295"/>
</g>
<g style="fill:rgb(124,227,255); fill-opacity:1.0; stroke-linejoin: miter">
<path d="M497.26468,705.4554L503.19617,707.4515L497.02243,725.79926L491.09064,723.8035L497.26468,705.4554"/>
</g>
<g style="fill:rgb(124,227,255); fill-opacity:1.0; stroke-linejoin: miter">
<path d="M513.46783,705.229L516.43353,706.2271L519.39923,707.2253Q516.31244,716.39905,513.2255,725.573Q510.25974,724.5752,507.29382,723.57733Q510.38083,714.4032,513.46783,705.229"/>
</g>
<g style="fill:rgb(124,227,255); fill-opacity:1.0; stroke-linejoin: miter">
<path d="M529.6676,704.9754L535.59906,706.9715L529.42523,725.31934L523.4936,723.3238L529.6676,704.9754"/>
</g>
<g style="fill:rgb(124,227,255); fill-opacity:1.0; stroke-linejoin: miter">
<path d="M384.6725,684.5067L390.604,686.503L384.4302,704.8507L378.49844,702.8551L384.6725,684.5067"/>
</g>
<g style="fill:rgb(83,93,102); fill-opacity:0.34509805; stroke-linejoin: miter">
<path d="M436.82382,702.46344L432.35422,715.73834L432.35434,715.7391L436.82086,702.46387 Z"/>
</g>
<g style="fill:rgb(83,93,102); fill-opacity:0.34509805; stroke-linejoin: miter">
<path d="M420.06317,698.402L415.74692,711.22144L420.0604,698.4024 Z"/>
</g>
<g style="fill:rgb(83,93,102); fill-opacity:0.34509805; stroke-linejoin: miter">
<path d="M389.84796,688.7569L385.79965,700.7811L389.84543,688.75714 Z"/>
</g>
<g style="fill:rgb(255,255,255); fill-opacity:1.0; stroke-linejoin: miter">
<path d="M379.1931,698.1952C378.04965,700.84424,376.69064,703.7059,375.1377,706.69666C400.0529,716.6055,425.8275,725.53754,454.20407,729.41003C480.01642,732.933,507.88373,732.2531,536.10223,730.38855C536.4006,728.1731,537.5972,725.2953,539.64465,720.72906C510.23044,722.78424,481.68268,723.67847,455.4744,720.1017C428.3743,716.4033,403.65955,707.9047,379.19543,698.19495 Z"/>
</g>
<g style="fill:rgb(255,255,255); fill-opacity:1.0; stroke-linejoin: miter">
<path d="M383.32278,675.4237C383.09283,676.83813,382.81717,678.5924,382.548,680.23663C382.20917,682.36505,381.9546,683.9557,381.65372,685.7294C405.0157,694.55817,429.2549,702.1385,455.54733,705.7267C482.57446,709.4153,511.6723,708.8691,541.1885,707.0146C542.65875,703.0349,545.08673,698.39655,546.5079,696.8178L546.8968,696.3933C515.46515,698.54877,484.96695,699.42554,456.92953,695.5992C430.90524,692.0475,406.9028,684.4273,383.32513,675.42334 Z"/>
</g>
<g style="fill:rgb(255,0,118); fill-opacity:1.0; stroke-linejoin: miter">
<path d="M545.3374,629.42816L545.3374,629.4284L545.3374,629.4287L545.3374,629.42816"/>
</g>
<g style="fill:rgb(76,192,255); fill-opacity:1.0; stroke-linejoin: miter">
<path d="M560.7673,656.8615L560.7673,656.862L560.7673,656.86237L560.7673,656.8615"/>
</g>
<g style="fill:url(#grad3); fill-opacity:0.06666667; stroke-linejoin: miter">
<path d="M459.7,405.0852L459.70007,405.0859C458.07468,405.28192,456.45407,405.51462,454.73746,405.7677C453.35788,405.97107,451.93213,406.18927,450.39603,406.4564C450.07663,406.5119,449.74323,406.584,449.40616,406.64136C411.45917,413.0956,381.36276,431.2581,363.36633,458.49506C352.88028,474.36526,346.7082,493.2617,345.4666,513.6286C344.33463,532.19653,347.02115,551.4647,353.51273,571.3357C357.39615,583.22327,358.81567,586.0092,369.262,602.03546C376.62085,613.325,378.81866,617.0374,381.75073,623.33356C385.9446,632.33936,387.15656,638.49005,386.5218,648.04767C386.04578,655.21326,384.7502,667.03534,383.76477,672.88885C383.59116,673.92,383.02765,677.2535,382.548,680.23663C381.68625,685.5959,381.37543,687.5464,379.50656,697.6017L379.4427,697.6124C377.10458,703.1175,373.742,709.5518,369.74707,716.2536C366.07358,722.4163,363.08972,732.9423,363.1675,739.729C363.27423,749.0372,360.979,754.38495,353.59024,762.1796C348.33896,767.71936,343.66492,773.18524,342.91953,774.2474C342.1749,775.30853,339.14523,779.0117,336.14026,781.909C317.2412,800.1306,282.05505,855.0882,283.57205,864.1134L282.97687,864.18805C347.44073,911.6032,419.41162,931.9283,498.88235,925.07806C500.33597,924.95264,501.7775,924.7605,503.21503,924.5866C540.29047,920.0989,574.5215,910.1865,605.908,894.84894L607.7428,894.63C607.5382,894.4234,607.3426,894.22797,607.15155,894.06195C593.6209,882.3043,589.57086,872.18225,583.42523,836.8485C575.28894,790.06836,563.3774,762.2334,541.53455,739.90405C534.4583,732.6702,534.3767,732.4365,540.45013,718.9402C540.69434,718.3976,540.90485,717.8401,541.1281,717.25806L541.1768,717.25494C540.2541,717.0055,539.31744,716.7316,538.367,716.433L538.3351,716.4393C539.24286,713.01276,540.1292,709.9807,541.0461,707.40643C542.49335,703.343,545.0398,698.4486,546.5079,696.8178L547.61835,695.6058L547.9152,695.61224L547.44885,690.6992L507.38165,624.1246C505.34424,624.7881,503.27408,625.38983,501.17145,625.93024L501.16968,625.9311C503.27182,625.3904,505.34128,624.7884,507.378,624.12506L500.75418,613.11255L500.7507,613.1138L465.6958,550.6531L469.65234,489.3207C469.65118,489.3206,469.65002,489.3206,469.64893,489.3206L469.65253,489.32098L472.39313,450.82803C472.39185,450.82803,472.3907,450.82803,472.38947,450.82803L472.39325,450.82825L475.73413,403.90485C474.49637,403.9189,473.51126,403.94058,472.92154,403.9748C467.71698,404.27664,463.723,404.59818,459.7,405.0852L459.70007,405.0859 Z M382.48166,505.01016L382.48178,505.01077C382.48337,505.0099,382.4851,505.00977,382.48682,505.00977L382.48166,505.01105C382.48166,505.01053,382.48166,505.01025,382.48166,505.01016L382.48178,505.01077 Z M376.05307,505.48456L376.05316,505.48517C376.05478,505.48444,376.05643,505.48428,376.0582,505.48416L376.05576,505.48505C375.72736,506.9879,375.43283,508.5039,375.17215,510.03302L375.17026,510.0339C375.43073,508.5043,375.72504,506.9879,376.05307,505.48456L376.05316,505.48517 Z M460.36658,686.58777L460.3667,686.5884C460.36868,686.5879,460.37073,686.58795,460.37277,686.58813L460.36664,686.5895C460.36658,686.5887,460.36652,686.58813,460.36658,686.58777L460.3667,686.5884 Z"/>
</g>
<g style="fill:rgb(60,70,79); fill-opacity:1.0; stroke-linejoin: miter">
<path d="M530.8024,721.22626L530.79626,721.24493L530.7922,721.257L530.7924,721.2562L530.8024,721.22626 Z"/>
</g>
<g style="fill:rgb(60,70,79); fill-opacity:1.0; stroke-linejoin: miter">
<path d="M530.80206,721.2276L530.7961,721.2454L530.7973,721.2419L530.80206,721.2276 Z"/>
</g>
<g style="fill:rgb(60,70,79); fill-opacity:1.0; stroke-linejoin: miter">
<path d="M535.47296,707.3571L530.80206,721.2276L530.82196,721.16846L530.8221,721.169L535.47296,707.3571 Z"/>
</g>
<g style="fill:rgb(60,70,79); fill-opacity:1.0; stroke-linejoin: miter">
<path d="M498.1323,722.5006L498.13223,722.50073L498.13235,722.5015L498.1323,722.5006 Z"/>
</g>
<g style="fill:rgb(255,255,255); fill-opacity:1.0; stroke-linejoin: miter">
<path d="M425.3826,746.396Q410.16125,748.23846,396.70404,755.4082Q377.51907,765.5802,365.89792,787.72784Q347.928,820.9624,342.00406,899.07965Q414.85046,932.29126,498.88235,925.07806Q501.05872,924.8475,503.21503,924.5866Q518.18134,922.775,532.5297,919.78503Q531.5888,877.52844,526.3751,839.72595Q522.18243,812.03107,511.72882,790.8675Q500.2381,769.23425,483.50372,759.2772Q480.971,756.8843,465.34436,750.5989Q452.46872,746.2298,438.87198,745.7987Q431.96246,745.5996,425.3826,746.396 Z"/>
</g>
<g style="fill:rgb(0,0,0); fill-opacity:1.0; stroke-linejoin: miter">
<path d="M425.71042,771.0723Q411.30078,772.8165,398.5611,779.6039Q380.399,789.23364,369.39746,810.2002Q354.02917,838.6234,347.96753,901.72296Q418.27945,931.9969,498.88235,925.07806Q501.05872,924.8475,503.21503,924.5866Q515.1487,923.14197,526.6895,920.9483Q525.36554,888.76965,521.3186,859.426Q517.34955,833.2079,507.45325,813.1728Q496.5751,792.6927,480.73285,783.2666Q478.33533,781.00116,463.54184,775.051Q451.3526,770.9149,438.48083,770.5068Q431.93973,770.3184,425.7107,771.0723 Z"/>
</g>
<g style="fill:rgb(0,0,0); fill-opacity:1.0; stroke-linejoin: miter">
<path d="M381.8269,623.49835C381.8269,623.49835,381.8269,623.49835,381.8269,623.49835L381.8273,623.499C381.82724,623.4983,381.82724,623.4983,381.82724,623.4983 Z"/>
</g>
<g style="fill:rgb(0,0,0); fill-opacity:1.0; stroke-linejoin: miter">
<path d="M353.55798,571.4746C353.5583,571.47565,353.5586,571.47656,353.55887,571.4775L353.5591,571.47815C353.55872,571.47656,353.5584,571.47565,353.55807,571.4746 Z"/>
</g>
<g style="fill:rgb(0,0,0); fill-opacity:1.0; stroke-linejoin: miter">
<path d="M383.57272,673.92194C383.4989,674.3493,383.41446,674.8595,383.32278,675.4237C383.32953,675.4252,383.3339,675.42676,383.3383,675.4285C383.3339,675.42676,383.32953,675.4252,383.32513,675.42334C383.41568,674.8594,383.4995,674.3493,383.57303,673.9219 Z"/>
</g>
<g style="fill:rgb(0,0,0); fill-opacity:1.0; stroke-linejoin: miter">
<path d="M351.60065,565.1296L351.60074,565.1303C352.19608,567.1918,352.8334,569.26056,353.51273,571.3357C352.83484,569.26074,352.1985,567.1925,351.60364,565.13074L351.60074,565.1296 Z"/>
</g>
<g style="fill:rgb(44,250,18); fill-opacity:0.6039216; stroke-linejoin: miter">
<path d="M547.9441,695.50073L547.6783,690.2879Q545.32837,652.43726,549.29425,629.19635Q552.56885,609.63635,564.85175,575.95807Q549.1265,596.4848,544.23303,601.021Q537.0623,608.5606,531.6145,612.1232Q526.3068,616.1664,517.9417,619.613Q502.252,625.4394,492.25195,627.2971L547.9441,695.50073"/>
</g>
<g style="fill:rgb(6,72,90); fill-opacity:1.0; stroke-linejoin: miter">
<path d="M605.1785,712.91974L605.1783,712.9201L605.1783,712.92065L605.1785,712.91974"/>
</g>
<g style="fill:rgb(255,255,255); fill-opacity:1.0; stroke-linejoin: miter">
<path d="M616.57196,622.1392L616.57184,622.13947Q282.2619,670.9687,616.57196,622.1392"/>
</g>
<g style="fill:rgb(255,255,255); fill-opacity:1.0; stroke-linejoin: miter">
<path d="M576.9723,751.10565L576.9723,751.1059L576.9722,751.10614L576.9723,751.10565"/>
</g>
<g style="fill:rgb(255,255,255); fill-opacity:1.0; stroke-linejoin: miter">
<path d="M413.62094,475.52982L413.62094,475.52997L413.62094,475.5301L413.62094,475.52997L413.62094,475.52982L413.62094,475.52997L413.62094,475.5301Q413.62094,475.52997,413.62094,475.52982"/>
</g>
<g style="fill:rgb(255,255,255); fill-opacity:1.0; stroke-linejoin: miter">
<path d="M364.54227,422.2744L364.54227,422.27454L364.54224,422.27475L364.54227,422.27454L364.54227,422.2744L364.54227,422.27454L364.54224,422.27475Q364.54227,422.27454,364.54227,422.2744"/>
</g>
<g style="fill:rgb(255,255,255); fill-opacity:1.0; stroke-linejoin: miter">
<path d="M364.54227,422.2744L364.54227,422.27454L364.54224,422.27475L364.54227,422.27454L364.54227,422.2744L364.54227,422.27454L364.54224,422.27475Q364.54227,422.27454,364.54227,422.2744"/>
</g>
<g style="fill:rgb(255,255,255); fill-opacity:1.0; stroke-linejoin: miter">
<path d="M423.6471,637.3027L423.6471,637.3028L423.64713,637.3028L423.6471,637.3028L423.6471,637.3027L423.6471,637.3028L423.64713,637.3028Q423.6471,637.3028,423.6471,637.3027"/>
</g>
<g style="fill:rgb(255,0,30); fill-opacity:1.0; stroke-linejoin: miter">
<path d="M433.1154,634.1676L458.17386,635.7913L483.2323,637.4155Q481.52948,663.6923,479.82675,689.96906Q454.76828,688.34546,429.7099,686.7219Q431.4126,660.44476,433.1154,634.1676"/>
</g>
<g style="fill:rgb(83,93,102); fill-opacity:1.0; stroke-linejoin: miter">
<path d="M434.9926,636.41016L458.03693,637.9035L481.0812,639.397Q479.51523,663.5618,477.9493,687.72644Q454.9051,686.2332,431.86084,684.7403Q433.42673,660.5753,434.9926,636.41016"/>
</g>
<g style="fill:rgb(255,255,255); fill-opacity:1.0; stroke-linejoin: miter">
<path d="M453.21567,637.3138L458.36356,637.6471L463.5113,637.9804Q461.93488,662.3482,460.3583,686.71576Q455.21045,686.38306,450.06256,686.0505Q451.63913,661.6822,453.21567,637.3138"/>
</g>
<g style="fill:rgb(29,255,0); fill-opacity:1.0; stroke-linejoin: miter">
<path d="M444.4366,644.6058L457.40485,645.3358L470.3728,646.0659Q470.15878,649.8674,469.94485,653.6688Q456.97693,652.9391,444.00873,652.2093Q444.22263,648.4076,444.4366,644.6058"/>
</g>
<g style="fill:rgb(29,255,0); fill-opacity:1.0; stroke-linejoin: miter">
<path d="M443.68768,657.91254L469.6238,659.3724L469.19598,666.9752L443.25974,665.5159L443.68768,657.91254"/>
</g>
<g style="fill:rgb(29,255,0); fill-opacity:1.0; stroke-linejoin: miter">
<path d="M442.93875,671.21924L455.90695,671.949L468.87497,672.67896Q468.66098,676.48047,468.44714,680.2819Q455.4791,679.55237,442.51077,678.8228Q442.7247,675.021,442.93875,671.21924"/>
</g>
<g style="fill:rgb(60,70,79); fill-opacity:1.0; stroke-linejoin: miter">
<path d="M450.07407,685.9202Q450.0668,685.98553,450.06256,686.0505Q450.0668,685.98553,450.07095,685.92065 Z"/>
</g>
<g style="fill:rgb(0,0,0); fill-opacity:1.0; stroke-linejoin: miter">
<path d="M460.36768,686.5872Q460.3676,686.5884,460.36752,686.5895L460.36658,686.5903Q469.1585,687.15686,477.9493,687.72644Q469.1585,687.15686,460.36768,686.5872 Z"/>
</g>
<g style="fill:rgb(0,0,0); fill-opacity:1.0; stroke-linejoin: miter">
<path d="M463.4934,638.2573L481.0812,639.397L481.08124,639.3976L463.49457,638.25726 Z"/>
</g>
<g style="fill:rgb(206,210,213); fill-opacity:1.0; stroke-linejoin: miter">
<path d="M590.926,711.699L590.92596,711.69916L590.92596,711.69916L590.926,711.699"/>
</g>
<g style="fill:rgb(0,0,0); fill-opacity:1.0; stroke-linejoin: miter">
<path d="M366.71472,487.4116L365.72336,491.86136Q362.29465,505.2232,357.03802,512.60034Q351.75745,519.96594,347.077,517.4491Q342.74445,514.36896,341.94788,503.4291Q341.6984,499.89447,341.89023,495.82242L342.19836,491.65817Q342.61984,487.3805,343.51886,482.81738Q346.41623,468.84152,351.53012,460.19296Q356.64407,451.54446,361.6425,452.1672Q366.50085,453.4967,367.9321,463.44156Q369.36334,473.3864,366.71472,487.4116"/>
</g>
<g style="fill:rgb(0,0,0); fill-opacity:1.0; stroke-linejoin: miter">
<path d="M166.00926,718.2526L166.00926,718.2526C177.4361,717.3275,189.20581,716.37054,199.95007,716.37054L199.95007,716.37054C213.30095,716.37054,226.57088,717.8018,235.94199,723.84625L235.94199,723.8463C243.92099,728.9928,248.2854,737.03625,251.83667,743.3696L251.83667,743.3696C255.78098,750.404,258.9535,755.81995,264.3837,759.3224L264.38382,759.32245C264.9299,759.67474,265.50024,760.0078,266.10117,760.3216L266.10095,760.3214C269.44223,762.0661,273.7358,763.2154,278.1912,763.2154L278.1912,763.2154C288.93155,763.2154,303.1749,756.4088,303.43378,726.3744L303.43378,726.3744C303.61392,705.4779,296.90942,674.6681,289.77045,642.0638L289.77045,642.0638C282.5048,608.8809,274.80527,573.90027,275.02347,548.5908L275.02347,548.59076C275.02875,547.9785,275.03867,547.3696,275.05325,546.7663L275.05325,546.7662C276.33475,493.88135,313.82358,484.7587,345.65317,476.74146C349.19485,475.8494,352.78918,477.9973,353.6812,481.53906C354.57333,485.08078,352.42535,488.67496,348.88367,489.56702L348.88367,489.56702C316.26126,497.78397,289.29794,504.89542,288.27554,547.0867L288.27554,547.08655C288.2627,547.6184,288.2539,548.15985,288.24918,548.70483L288.24918,548.7048C288.04688,572.17175,295.29013,605.4363,302.69055,639.23486L302.69055,639.23486C309.68445,671.1764,316.85568,703.73834,316.65952,726.4884L316.65952,726.4884C316.35086,762.29474,297.5947,776.4417,278.1912,776.4417L278.1912,776.4417C271.5797,776.4417,265.1882,774.76544,259.97928,772.04565L259.9791,772.04553C259.01572,771.5425,258.0968,771.00616,257.21457,770.43713L257.2147,770.4372C248.59888,764.88,244.00012,756.4368,240.30025,749.83844L240.30028,749.83844C236.45166,742.9748,233.53468,738.0324,228.7729,734.96094L228.77293,734.96106C222.89859,731.17206,213.104,729.5968,199.95007,729.5968L199.95007,729.5968C189.84198,729.5968,178.6322,730.5001,167.07655,731.43567C163.43614,731.7304,160.24608,729.0182,159.95137,725.3778C159.65663,721.7374,162.36885,718.54736,166.00926,718.2526 Z"/>
</g>
<g style="fill:rgb(255,255,255); fill-opacity:1.0; stroke-linejoin: miter">
<path d="M33.313385,427.01974L52.014725,424.0528L70.716064,421.0859Q121.85793,743.389,172.9998,1065.6923L135.59743,1071.6278L33.313385,427.01974"/>
</g>
<g style="fill:rgb(255,255,255); fill-opacity:1.0; stroke-linejoin: miter">
<path d="M242.9056,969.7062L242.9056,969.7064L142.97325,1026.994Q189.0187,1033.0024,235.0642,1039.011L242.9056,969.7062"/>
</g>
<g style="fill:rgb(0,0,0); fill-opacity:0.99607843; stroke-linejoin: miter">
<path d="M100.442894,405.83762L100.44289,405.8378L100.44287,405.83798L100.442894,405.83762"/>
</g>
<g style="fill:rgb(255,255,255); fill-opacity:1.0; stroke-linejoin: miter">
<path d="M147.65468,405.65582L103.59573,408.38312L34.888264,427.0981L61.92951,423.2033Q55.93737,427.32428,55.264515,428.7622Q54.29375,430.6248,58.974575,430.33667Q63.692062,430.2617,83.5501,425.79785Q94.59243,423.44864,145.94069,410.55945L147.65468,405.65582"/>
</g>
<g style="fill:rgb(0,0,0); fill-opacity:0.99607843; stroke-linejoin: miter">
<path d="M260.72372,958.892L260.72382,958.893L260.7239,958.89404L260.72372,958.892"/>
</g>
<g style="fill:rgb(255,255,255); fill-opacity:1.0; stroke-linejoin: miter">
<path d="M235.97777,978.41125L508.99026,978.41187L782.0028,978.4124Q782.0028,1014.71844,782.00305,1051.0244Q508.99036,1051.0249,235.97777,1051.0251Q235.97777,1014.7183,235.97777,978.41125"/>
</g>
<g style="fill:rgb(83,93,102); fill-opacity:0.99607843; stroke-linejoin: miter">
<path d="M650.9663,989.95795L650.9663,989.95807L725.87885,987.6986Q725.8085,1004.109,725.7382,1020.51953Q684.0856,1020.4062,642.43286,1020.2927L650.9663,989.95795"/>
</g>
<g style="fill:rgb(83,93,102); fill-opacity:0.99607843; stroke-linejoin: miter">
<path d="M281.87262,986.28595L281.87262,986.2864Q450.31802,987.6015,618.7635,988.91547Q614.88293,1002.4534,611.0024,1015.99164Q432.74298,1015.3085,254.48364,1014.6253L281.87262,986.28595"/>
</g>
<g style="fill:rgb(255,255,255); fill-opacity:0.20784314; stroke-linejoin: miter">
<path d="M137.30223,412.27673L70.56915,428.11078L83.93273,509.52698L137.30223,412.27673"/>
</g>
<g style="fill:rgb(255,255,255); fill-opacity:0.20392157; stroke-linejoin: miter">
<path d="M154.43507,1021.64886L212.97517,877.3939L227.52928,978.45386L154.43507,1021.64886"/>
</g>
<g style="fill:rgb(255,255,255); fill-opacity:1.0; stroke-linejoin: miter">
<path d="M137.39519,1004.5386L459.2677,1004.5392L781.1404,1004.5398Q781.1404,1040.8457,781.14056,1077.1519Q459.2677,1077.1523,137.39519,1077.1523Q137.39519,1040.8455,137.39519,1004.5386"/>
</g>
<g style="fill:rgb(0,0,0); fill-opacity:0.09411765; stroke-linejoin: miter">
<path d="M133.83727,1023.80817L457.9582,1023.80896L782.0792,1023.8094Q782.0794,1050.3253,782.0794,1076.8411Q457.9582,1076.8414,133.83727,1076.8416Q133.83727,1050.325,133.83727,1023.80817"/>
</g>
<g style="fill:rgb(0,0,0); fill-opacity:0.09803922; stroke-linejoin: miter">
<path d="M37.040485,433.2764L66.1491,428.71L158.92662,1019.9906L129.8183,1024.559L37.040485,433.2764"/>
</g>
</g>
<defs>
<linearGradient id="grad2" gradientUnits="userSpaceOnUse" x1="522.3035" y1="554.43365" x2="636.34125" y2="513.8909" >
<stop offset="0.0%" style="stop-color:rgb(255,255,255); stop-opacity:1.0" />
<stop offset="100.0%" style="stop-color:rgb(0,229,122); stop-opacity:1.0" />
</linearGradient>
<linearGradient id="grad1" gradientUnits="userSpaceOnUse" x1="368.68863" y1="782.02985" x2="575.95654" y2="517.6773" >
<stop offset="0.0%" style="stop-color:rgb(255,255,255); stop-opacity:1.0" />
<stop offset="100.0%" style="stop-color:rgb(246,251,255); stop-opacity:1.0" />
</linearGradient>
<linearGradient id="grad0" gradientUnits="userSpaceOnUse" x1="520.18195" y1="1055.3591" x2="653.5206" y2="-357.80728" >
<stop offset="0.0%" style="stop-color:rgb(255,255,255); stop-opacity:1.0" />
<stop offset="100.0%" style="stop-color:rgb(99,112,121); stop-opacity:1.0" />
</linearGradient>
<linearGradient id="grad3" gradientUnits="userSpaceOnUse" x1="262.06284" y1="691.40015" x2="578.508" y2="653.0979" >
<stop offset="0.0%" style="stop-color:rgb(255,255,255); stop-opacity:1.0" />
<stop offset="100.0%" style="stop-color:rgb(51,103,116); stop-opacity:1.0" />
<stop offset="100.0%" style="stop-color:rgb(57,100,112); stop-opacity:1.0" />
</linearGradient>
</defs>
</svg>