<?xml version="1.0" encoding="UTF-8"?>
<svg xmlns="http://www.w3.org/2000/svg" xmlns:xlink="http://www.w3.org/1999/xlink" width="375pt" height="374.999991pt" viewBox="0 0 375 374.999991" version="1.2">
<defs>
<clipPath id="clip1">
  <path d="M 2.371094 20.554688 L 367.851562 20.554688 L 367.851562 358.328125 L 2.371094 358.328125 Z M 2.371094 20.554688 "/>
</clipPath>
<clipPath id="clip2">
  <path d="M 33 20.554688 L 364.714844 20.554688 L 364.714844 358.328125 L 33 358.328125 Z M 33 20.554688 "/>
</clipPath>
<clipPath id="clip3">
  <path d="M 2.371094 16.488281 L 358 16.488281 L 358 347 L 2.371094 347 Z M 2.371094 16.488281 "/>
</clipPath>
<clipPath id="clip4">
  <path d="M 29.039062 21.339844 L 367.851562 21.339844 L 367.851562 358.328125 L 29.039062 358.328125 Z M 29.039062 21.339844 "/>
</clipPath>
<clipPath id="clip5">
  <path d="M 71 107 L 372.863281 107 L 372.863281 348 L 71 348 Z M 71 107 "/>
</clipPath>
</defs>
<g id="surface1">
<rect x="0" y="0" width="375" height="374.999991" style="fill:rgb(100%,100%,100%);fill-opacity:1;stroke:none;"/>
<rect x="0" y="0" width="375" height="374.999991" style="fill:rgb(100%,100%,100%);fill-opacity:1;stroke:none;"/>
<rect x="0" y="0" width="375" height="374.999991" style="fill:rgb(100%,100%,100%);fill-opacity:1;stroke:none;"/>
<g clip-path="url(#clip1)" clip-rule="nonzero">
<path style=" stroke:none;fill-rule:nonzero;fill:rgb(55.288696%,89.019775%,0.779724%);fill-opacity:1;" d="M 325.421875 284.675781 L 311.824219 264.246094 L 306.578125 264.246094 C 301.253906 271.339844 295.640625 278.179688 289.78125 284.675781 Z M 57.53125 54.878906 C 57.53125 55.1875 57.558594 55.5 57.601562 55.796875 C 60.976562 53.503906 64.476562 51.332031 68.078125 49.277344 C 66.996094 48.546875 65.695312 48.117188 64.292969 48.117188 C 60.5625 48.117188 57.53125 51.148438 57.53125 54.878906 Z M 367.691406 296.886719 L 351.925781 296.886719 L 359.0625 358.328125 L 347.609375 358.328125 L 340.46875 296.886719 L 300.09375 296.886719 L 292.957031 358.328125 L 281.5 358.328125 L 288.640625 296.886719 L 278.070312 296.886719 C 247.535156 326.769531 211.789062 346.910156 176.75 346.910156 C 161.085938 346.910156 145.574219 343.859375 130.628906 338.367188 L 132.949219 358.328125 L 121.496094 358.328125 L 118.59375 333.363281 C 102.441406 325.859375 87.132812 315.546875 73.246094 303.210938 L 66.839844 358.328125 L 55.386719 358.328125 L 62.527344 296.886719 L 47.628906 296.886719 L 47.628906 284.675781 L 54.765625 284.675781 C 23.054688 248.828125 2.371094 202.253906 2.371094 158.074219 C 2.371094 116.875 20.359375 84.957031 48.503906 62.5 C 48.015625 61.496094 47.625 60.453125 47.339844 59.371094 L 42.191406 58.238281 L 42.191406 51.515625 L 47.339844 50.382812 C 47.742188 48.871094 48.339844 47.425781 49.121094 46.074219 L 46.28125 41.636719 L 51.042969 36.882812 L 55.484375 39.71875 C 56.835938 38.933594 58.28125 38.335938 59.792969 37.9375 L 60.925781 32.789062 L 67.65625 32.789062 L 68.789062 37.9375 C 70.300781 38.335938 71.746094 38.933594 73.097656 39.71875 L 77.542969 36.882812 L 82.300781 41.636719 L 81.953125 42.179688 C 84.511719 41.007812 87.113281 39.890625 89.75 38.828125 L 89.75 32.789062 L 106.941406 32.789062 C 120.777344 28.613281 135.375 25.746094 150.339844 24.203125 C 150.324219 24.078125 150.300781 23.949219 150.300781 23.816406 C 150.300781 22.253906 151.574219 20.984375 153.136719 20.984375 C 154.65625 20.984375 155.886719 22.183594 155.957031 23.683594 C 162.835938 23.128906 169.777344 22.851562 176.75 22.851562 C 266.296875 22.851562 360.488281 36.375 360.488281 125.863281 C 360.488281 167.164062 340.421875 217.429688 310.007812 259.585938 L 333.773438 259.585938 L 350.472656 284.675781 L 367.691406 284.675781 Z M 44.136719 26.652344 C 45.699219 26.652344 46.972656 25.378906 46.972656 23.816406 C 46.972656 22.253906 45.699219 20.984375 44.136719 20.984375 C 42.574219 20.984375 41.300781 22.253906 41.300781 23.816406 C 41.300781 25.378906 42.574219 26.652344 44.136719 26.652344 Z M 261.792969 23.816406 C 261.792969 22.253906 263.066406 20.984375 264.628906 20.984375 C 266.195312 20.984375 267.464844 22.253906 267.464844 23.816406 C 267.464844 25.378906 266.195312 26.652344 264.628906 26.652344 C 263.066406 26.652344 261.792969 25.378906 261.792969 23.816406 "/>
</g>
<g clip-path="url(#clip2)" clip-rule="nonzero">
<path style=" stroke:none;fill-rule:nonzero;fill:rgb(54.899597%,32.159424%,100%);fill-opacity:1;" d="M 256.859375 25.867188 C 257.992188 25.867188 258.914062 24.949219 258.914062 23.816406 C 258.914062 22.6875 257.992188 21.769531 256.859375 21.769531 C 255.726562 21.769531 254.808594 22.6875 254.808594 23.816406 C 254.808594 24.949219 255.726562 25.867188 256.859375 25.867188 Z M 303.277344 87.230469 L 312.828125 87.230469 L 312.828125 84.878906 L 303.277344 84.878906 Z M 299.570312 55.5 L 286.550781 47.730469 L 286.550781 63.273438 Z M 332.097656 76.960938 L 254.027344 76.960938 L 254.027344 36.210938 L 332.097656 36.210938 Z M 316.988281 82.265625 L 310.335938 82.265625 L 310.335938 84.617188 L 316.988281 84.617188 Z M 303.277344 82.265625 L 303.277344 84.617188 L 309.929688 84.617188 L 309.929688 82.265625 Z M 316.988281 79.652344 L 303.277344 79.652344 L 303.277344 82.003906 L 316.988281 82.003906 Z M 97.453125 87.363281 L 89.472656 87.363281 L 89.472656 88.144531 L 97.453125 88.144531 Z M 101.613281 85.53125 L 101.613281 84.746094 L 96.53125 84.746094 L 96.53125 85.53125 Z M 94.554688 84.746094 L 89.472656 84.746094 L 89.472656 85.53125 L 94.554688 85.53125 Z M 101.613281 82.136719 L 89.472656 82.136719 L 89.472656 82.917969 L 101.613281 82.917969 Z M 47.378906 87.363281 L 39.398438 87.363281 L 39.398438 88.144531 L 47.378906 88.144531 Z M 51.539062 85.53125 L 51.539062 84.746094 L 46.457031 84.746094 L 46.457031 85.53125 Z M 44.476562 84.746094 L 39.398438 84.746094 L 39.398438 85.53125 L 44.476562 85.53125 Z M 51.539062 82.136719 L 39.398438 82.136719 L 39.398438 82.917969 L 51.539062 82.917969 Z M 104.496094 63.027344 L 90.535156 63.027344 L 90.535156 67.910156 L 104.496094 67.910156 Z M 104.496094 41.726562 L 90.535156 41.726562 L 90.535156 46.605469 L 104.496094 46.605469 Z M 36.367188 25.867188 C 37.5 25.867188 38.417969 24.949219 38.417969 23.816406 C 38.417969 22.6875 37.5 21.769531 36.367188 21.769531 C 35.234375 21.769531 34.316406 22.6875 34.316406 23.816406 C 34.316406 24.949219 35.234375 25.867188 36.367188 25.867188 Z M 52.613281 54.878906 C 52.613281 61.3125 57.851562 66.546875 64.292969 66.546875 C 70.734375 66.546875 75.972656 61.3125 75.972656 54.878906 C 75.972656 48.441406 70.734375 43.203125 64.292969 43.203125 C 57.851562 43.203125 52.613281 48.441406 52.613281 54.878906 Z M 51.828125 54.878906 C 51.828125 48.007812 57.417969 42.421875 64.292969 42.421875 C 71.164062 42.421875 76.757812 48.007812 76.757812 54.878906 C 76.757812 61.742188 71.164062 67.332031 64.292969 67.332031 C 57.417969 67.332031 51.828125 61.742188 51.828125 54.878906 Z M 200.648438 125.1875 C 200.007812 125.1875 199.421875 125.707031 199.34375 126.347656 C 199.261719 126.988281 199.714844 127.503906 200.355469 127.503906 C 200.996094 127.503906 201.582031 126.988281 201.660156 126.347656 C 201.742188 125.707031 201.289062 125.1875 200.648438 125.1875 Z M 233.941406 125.5625 L 222.261719 125.5625 C 221.828125 125.5625 221.476562 125.914062 221.476562 126.34375 C 221.476562 126.78125 221.828125 127.128906 222.261719 127.128906 L 233.941406 127.128906 C 234.371094 127.128906 234.726562 126.78125 234.726562 126.34375 C 234.726562 125.914062 234.371094 125.5625 233.941406 125.5625 Z M 145.367188 26.652344 C 146.929688 26.652344 148.203125 25.378906 148.203125 23.816406 C 148.203125 22.253906 146.929688 20.984375 145.367188 20.984375 C 143.804688 20.984375 142.535156 22.253906 142.535156 23.816406 C 142.535156 25.378906 143.804688 26.652344 145.367188 26.652344 Z M 166.519531 79.367188 C 166.519531 80.605469 167.527344 81.613281 168.765625 81.613281 L 185.75 81.613281 C 186.988281 81.613281 187.996094 80.605469 187.996094 79.367188 C 187.996094 78.132812 186.988281 77.128906 185.75 77.128906 L 168.765625 77.128906 C 167.527344 77.128906 166.519531 78.132812 166.519531 79.367188 Z M 150.984375 67.972656 L 167.972656 67.972656 C 169.210938 67.972656 170.21875 66.96875 170.21875 65.730469 C 170.21875 64.492188 169.210938 63.488281 167.972656 63.488281 L 150.984375 63.488281 C 149.75 63.488281 148.742188 64.492188 148.742188 65.730469 C 148.742188 66.96875 149.75 67.972656 150.984375 67.972656 Z M 150.984375 54.335938 L 180.417969 54.335938 C 181.65625 54.335938 182.660156 53.328125 182.660156 52.089844 C 182.660156 50.855469 181.65625 49.851562 180.417969 49.851562 L 150.984375 49.851562 C 149.75 49.851562 148.742188 50.855469 148.742188 52.089844 C 148.742188 53.328125 149.75 54.335938 150.984375 54.335938 Z M 186.09375 67.972656 L 192.101562 67.972656 C 193.339844 67.972656 194.34375 66.96875 194.34375 65.730469 C 194.34375 64.492188 193.339844 63.488281 192.101562 63.488281 L 186.09375 63.488281 C 184.855469 63.488281 183.847656 64.492188 183.847656 65.730469 C 183.847656 66.96875 184.855469 67.972656 186.09375 67.972656 Z M 179.96875 67.972656 C 181.207031 67.972656 182.214844 66.96875 182.214844 65.730469 C 182.214844 64.492188 181.207031 63.488281 179.96875 63.488281 L 173.964844 63.488281 C 172.726562 63.488281 171.71875 64.492188 171.71875 65.730469 C 171.71875 66.96875 172.726562 67.972656 173.964844 67.972656 Z M 150.984375 47.515625 L 156.992188 47.515625 C 158.230469 47.515625 159.238281 46.511719 159.238281 45.273438 C 159.238281 44.035156 158.230469 43.03125 156.992188 43.03125 L 150.984375 43.03125 C 149.75 43.03125 148.742188 44.035156 148.742188 45.273438 C 148.742188 46.511719 149.75 47.515625 150.984375 47.515625 Z M 150.984375 40.695312 L 171.214844 40.695312 C 172.453125 40.695312 173.460938 39.691406 173.460938 38.457031 C 173.460938 37.21875 172.453125 36.210938 171.214844 36.210938 L 150.984375 36.210938 C 149.75 36.210938 148.742188 37.21875 148.742188 38.457031 C 148.742188 39.691406 149.75 40.695312 150.984375 40.695312 Z M 194.671875 337.058594 L 51.921875 337.058594 C 46.042969 337.058594 41.277344 341.820312 41.277344 347.695312 C 41.277344 353.570312 46.042969 358.328125 51.921875 358.328125 L 194.671875 358.328125 C 200.554688 358.328125 205.316406 353.570312 205.316406 347.695312 C 205.316406 341.820312 200.554688 337.058594 194.671875 337.058594 Z M 359.367188 114.855469 C 359.367188 114.425781 359.015625 114.074219 358.582031 114.074219 L 320.019531 114.074219 C 319.585938 114.074219 319.234375 114.425781 319.234375 114.855469 C 319.234375 115.289062 319.585938 115.640625 320.019531 115.640625 L 358.582031 115.640625 C 359.015625 115.640625 359.367188 115.289062 359.367188 114.855469 Z M 341.246094 127.128906 L 347.859375 127.128906 C 348.289062 127.128906 348.644531 126.78125 348.644531 126.34375 C 348.644531 125.914062 348.289062 125.5625 347.859375 125.5625 L 341.246094 125.5625 C 340.816406 125.5625 340.464844 125.914062 340.464844 126.34375 C 340.464844 126.78125 340.816406 127.128906 341.246094 127.128906 Z M 356.796875 131.46875 C 356.796875 131.035156 356.441406 130.683594 356.011719 130.683594 L 340.605469 130.683594 C 340.171875 130.683594 339.820312 131.035156 339.820312 131.46875 C 339.820312 131.898438 340.171875 132.25 340.605469 132.25 L 356.011719 132.25 C 356.441406 132.25 356.796875 131.898438 356.796875 131.46875 Z M 339.960938 137.371094 L 347.871094 137.371094 C 348.304688 137.371094 348.65625 137.019531 348.65625 136.589844 C 348.65625 136.152344 348.304688 135.804688 347.871094 135.804688 L 339.960938 135.804688 C 339.527344 135.804688 339.175781 136.152344 339.175781 136.589844 C 339.175781 137.019531 339.527344 137.371094 339.960938 137.371094 Z M 335.324219 170.042969 C 334.890625 170.042969 334.542969 170.394531 334.542969 170.828125 C 334.542969 171.257812 334.890625 171.613281 335.324219 171.613281 L 341.933594 171.613281 C 342.367188 171.613281 342.71875 171.257812 342.71875 170.828125 C 342.71875 170.394531 342.367188 170.042969 341.933594 170.042969 Z M 350.871094 175.945312 C 350.871094 175.515625 350.519531 175.164062 350.085938 175.164062 L 334.679688 175.164062 C 334.246094 175.164062 333.894531 175.515625 333.894531 175.945312 C 333.894531 176.382812 334.246094 176.730469 334.679688 176.730469 L 350.085938 176.730469 C 350.519531 176.730469 350.871094 176.382812 350.871094 175.945312 Z M 342.730469 181.066406 C 342.730469 180.632812 342.382812 180.285156 341.945312 180.285156 L 334.035156 180.285156 C 333.605469 180.285156 333.25 180.632812 333.25 181.066406 C 333.25 181.5 333.605469 181.851562 334.035156 181.851562 L 341.945312 181.851562 C 342.382812 181.851562 342.730469 181.5 342.730469 181.066406 Z M 325.851562 132.058594 C 325.851562 131.625 325.5 131.273438 325.066406 131.273438 L 311.851562 131.273438 C 311.417969 131.273438 311.066406 131.625 311.066406 132.058594 C 311.066406 132.492188 311.417969 132.839844 311.851562 132.839844 L 325.066406 132.839844 C 325.5 132.839844 325.851562 132.492188 325.851562 132.058594 Z M 319.230469 142.300781 C 319.230469 141.867188 318.882812 141.519531 318.449219 141.519531 L 306.902344 141.519531 C 306.46875 141.519531 306.117188 141.867188 306.117188 142.300781 C 306.117188 142.734375 306.46875 143.085938 306.902344 143.085938 L 318.449219 143.085938 C 318.882812 143.085938 319.230469 142.734375 319.230469 142.300781 Z M 316.472656 206.621094 C 316.472656 206.191406 316.121094 205.835938 315.6875 205.835938 L 294.898438 205.835938 C 294.464844 205.835938 294.113281 206.191406 294.113281 206.621094 C 294.113281 207.054688 294.464844 207.40625 294.898438 207.40625 L 315.6875 207.40625 C 316.121094 207.40625 316.472656 207.054688 316.472656 206.621094 Z M 257.492188 120.636719 L 200.148438 120.636719 C 197.980469 120.636719 196.007812 122.390625 195.734375 124.554688 L 194.789062 132.058594 L 259.976562 132.058594 L 260.917969 124.554688 C 261.191406 122.390625 259.65625 120.636719 257.492188 120.636719 Z M 250.917969 179.550781 C 250.917969 179.117188 250.566406 178.769531 250.136719 178.769531 L 243.136719 178.769531 C 242.707031 178.769531 242.351562 179.117188 242.351562 179.550781 C 242.351562 179.984375 242.707031 180.335938 243.136719 180.335938 L 250.136719 180.335938 C 250.566406 180.335938 250.917969 179.984375 250.917969 179.550781 Z M 234.042969 183.316406 C 234.042969 182.878906 233.6875 182.53125 233.257812 182.53125 L 226.703125 182.53125 C 226.273438 182.53125 225.917969 182.878906 225.917969 183.316406 C 225.917969 183.746094 226.273438 184.097656 226.703125 184.097656 L 233.257812 184.097656 C 233.6875 184.097656 234.042969 183.746094 234.042969 183.316406 Z M 220.480469 179.550781 C 220.480469 179.117188 220.125 178.769531 219.695312 178.769531 L 212.695312 178.769531 C 212.261719 178.769531 211.914062 179.117188 211.914062 179.550781 C 211.914062 179.984375 212.261719 180.335938 212.695312 180.335938 L 219.695312 180.335938 C 220.125 180.335938 220.480469 179.984375 220.480469 179.550781 Z M 201.421875 209.839844 L 195.449219 209.839844 C 194.625 209.839844 193.875 210.507812 193.769531 211.328125 C 193.667969 212.152344 194.25 212.816406 195.074219 212.816406 L 201.050781 212.816406 C 201.871094 212.816406 202.625 212.152344 202.726562 211.328125 C 202.828125 210.507812 202.246094 209.839844 201.421875 209.839844 Z M 195.289062 199.636719 C 195.929688 199.636719 196.511719 199.113281 196.59375 198.476562 C 196.675781 197.835938 196.222656 197.316406 195.582031 197.316406 C 194.941406 197.316406 194.355469 197.835938 194.277344 198.476562 C 194.191406 199.113281 194.648438 199.636719 195.289062 199.636719 Z M 194.601562 183.316406 C 194.601562 183.746094 194.953125 184.097656 195.386719 184.097656 L 200.199219 184.097656 C 200.632812 184.097656 200.984375 183.746094 200.984375 183.316406 C 200.984375 182.878906 200.632812 182.53125 200.199219 182.53125 L 195.386719 182.53125 C 194.953125 182.53125 194.601562 182.878906 194.601562 183.316406 Z M 225.394531 142.300781 C 225.394531 141.867188 225.046875 141.519531 224.613281 141.519531 L 209.800781 141.519531 C 209.367188 141.519531 209.015625 141.867188 209.015625 142.300781 C 209.015625 142.734375 209.367188 143.085938 209.800781 143.085938 L 224.613281 143.085938 C 225.046875 143.085938 225.394531 142.734375 225.394531 142.300781 Z M 275.582031 227.101562 C 275.582031 227.535156 275.929688 227.886719 276.367188 227.886719 L 306.355469 227.886719 C 306.789062 227.886719 307.140625 227.535156 307.140625 227.101562 C 307.140625 226.671875 306.789062 226.320312 306.355469 226.320312 L 276.367188 226.320312 C 275.929688 226.320312 275.582031 226.671875 275.582031 227.101562 Z M 282.382812 173.023438 C 282.382812 173.453125 282.734375 173.804688 283.167969 173.804688 L 291.078125 173.804688 C 291.507812 173.804688 291.863281 173.453125 291.863281 173.023438 C 291.863281 172.589844 291.507812 172.238281 291.078125 172.238281 L 283.167969 172.238281 C 282.734375 172.238281 282.382812 172.589844 282.382812 173.023438 Z M 284.960938 152.542969 C 284.960938 152.972656 285.3125 153.324219 285.742188 153.324219 L 295.273438 153.324219 C 295.710938 153.324219 296.058594 152.972656 296.058594 152.542969 C 296.058594 152.105469 295.710938 151.757812 295.273438 151.757812 L 285.742188 151.757812 C 285.3125 151.757812 284.960938 152.105469 284.960938 152.542969 Z M 286.890625 137.179688 C 286.890625 137.613281 287.242188 137.964844 287.671875 137.964844 L 294.28125 137.964844 C 294.71875 137.964844 295.066406 137.613281 295.066406 137.179688 C 295.066406 136.75 294.71875 136.394531 294.28125 136.394531 L 287.671875 136.394531 C 287.242188 136.394531 286.890625 136.75 286.890625 137.179688 Z M 313.152344 152.542969 C 313.152344 152.105469 312.796875 151.757812 312.367188 151.757812 L 298.703125 151.757812 C 298.269531 151.757812 297.917969 152.105469 297.917969 152.542969 C 297.917969 152.972656 298.269531 153.324219 298.703125 153.324219 L 312.367188 153.324219 C 312.796875 153.324219 313.152344 152.972656 313.152344 152.542969 Z M 315.226562 168.683594 C 315.664062 168.683594 316.011719 168.335938 316.011719 167.902344 C 316.011719 167.46875 315.664062 167.117188 315.226562 167.117188 L 303.679688 167.117188 C 303.25 167.117188 302.898438 167.46875 302.898438 167.902344 C 302.898438 168.335938 303.25 168.683594 303.679688 168.683594 Z M 364.367188 117.46875 L 352.222656 226.960938 C 351.863281 230.195312 349.132812 232.632812 345.875 232.632812 L 175.769531 232.632812 C 173.925781 232.632812 172.238281 231.882812 171.011719 230.511719 C 170.769531 230.238281 170.558594 229.949219 170.371094 229.648438 C 168.601562 242.191406 160.136719 256.34375 160.136719 267.382812 C 160.136719 279.5 169.382812 296.886719 169.382812 296.886719 C 169.382812 296.886719 166.101562 324.027344 132.792969 324.027344 C 120.753906 324.027344 112.253906 321.917969 107.882812 320.492188 C 105.613281 319.75 103.941406 317.84375 103.429688 315.511719 C 99.558594 297.949219 102.183594 273.015625 104.910156 264.246094 C 106.757812 258.320312 104.585938 227.960938 97.464844 206.320312 C 93.828125 195.28125 102.054688 183.921875 113.6875 183.921875 L 116.441406 175.164062 C 116.441406 175.164062 125.199219 170.933594 134.453125 172.8125 C 143.710938 174.695312 148.128906 177.234375 151.582031 177.71875 L 149.34375 183.96875 C 153.160156 184.304688 156.574219 186.574219 158.320312 190.039062 C 162.085938 197.515625 168.074219 210.355469 170.039062 220.007812 L 181.570312 116.066406 C 181.929688 112.828125 184.65625 110.390625 187.914062 110.390625 L 358.023438 110.390625 C 359.863281 110.390625 361.554688 111.144531 362.777344 112.515625 C 364.007812 113.882812 364.570312 115.644531 364.367188 117.46875 Z M 205.039062 125.1875 C 204.402344 125.1875 203.816406 125.707031 203.734375 126.347656 C 203.652344 126.988281 204.105469 127.503906 204.746094 127.503906 C 205.386719 127.503906 205.972656 126.988281 206.050781 126.347656 C 206.132812 125.707031 205.679688 125.1875 205.039062 125.1875 Z M 209.429688 125.1875 C 208.789062 125.1875 208.207031 125.707031 208.125 126.347656 C 208.046875 126.988281 208.5 127.503906 209.140625 127.503906 C 209.78125 127.503906 210.367188 126.988281 210.445312 126.347656 C 210.523438 125.707031 210.070312 125.1875 209.429688 125.1875 Z M 89.226562 121.609375 L 79.886719 121.609375 L 79.886719 141.957031 L 89.226562 141.957031 Z M 56.464844 141.957031 L 65.800781 141.957031 L 65.800781 124.429688 L 56.464844 124.429688 Z M 42.375 141.957031 L 33.039062 141.957031 L 33.039062 130.542969 L 42.375 130.542969 L 42.375 141.957031 "/>
</g>
<g clip-path="url(#clip3)" clip-rule="nonzero">
<path style=" stroke:none;fill-rule:nonzero;fill:rgb(100%,100%,100%);fill-opacity:1;" d="M 64.292969 62.421875 C 68.460938 62.421875 71.839844 59.042969 71.839844 54.878906 C 71.839844 50.710938 68.460938 47.332031 64.292969 47.332031 C 60.125 47.332031 56.746094 50.710938 56.746094 54.878906 C 56.746094 59.042969 60.125 62.421875 64.292969 62.421875 Z M 42.085938 23.816406 C 42.085938 24.949219 43.003906 25.867188 44.136719 25.867188 C 45.273438 25.867188 46.1875 24.949219 46.1875 23.816406 C 46.1875 22.6875 45.273438 21.769531 44.136719 21.769531 C 43.003906 21.769531 42.085938 22.6875 42.085938 23.816406 Z M 47.285156 41.746094 L 50.046875 46.0625 C 49.105469 47.578125 48.402344 49.257812 47.984375 51.042969 L 42.972656 52.144531 L 42.972656 57.609375 L 47.984375 58.710938 C 48.402344 60.496094 49.105469 62.175781 50.046875 63.691406 L 47.285156 68.007812 L 51.152344 71.871094 L 55.472656 69.113281 C 56.992188 70.050781 58.667969 70.753906 60.457031 71.171875 L 61.558594 76.179688 L 67.027344 76.179688 L 68.128906 71.171875 C 69.914062 70.753906 71.59375 70.050781 73.109375 69.113281 L 77.433594 71.871094 L 81.300781 68.007812 L 78.535156 63.691406 C 79.476562 62.175781 80.183594 60.496094 80.601562 58.710938 L 85.609375 57.609375 L 85.609375 52.144531 L 80.601562 51.042969 C 80.183594 49.257812 79.476562 47.578125 78.535156 46.0625 L 81.300781 41.746094 L 77.433594 37.878906 L 73.109375 40.640625 C 71.59375 39.703125 69.914062 38.996094 68.128906 38.582031 L 67.027344 33.574219 L 61.558594 33.574219 L 60.457031 38.582031 C 58.667969 38.996094 56.992188 39.703125 55.472656 40.640625 L 51.152344 37.878906 Z M 90.535156 59.757812 L 111.867188 59.757812 L 111.867188 54.878906 L 90.535156 54.878906 Z M 90.535156 38.457031 L 111.867188 38.457031 L 111.867188 33.574219 L 90.535156 33.574219 Z M 68.226562 82.136719 L 56.089844 82.136719 L 56.089844 82.917969 L 68.226562 82.917969 Z M 68.226562 84.746094 L 63.148438 84.746094 L 63.148438 85.53125 L 68.226562 85.53125 Z M 61.167969 85.53125 L 61.167969 84.746094 L 56.089844 84.746094 L 56.089844 85.53125 Z M 64.074219 87.363281 L 56.089844 87.363281 L 56.089844 88.144531 L 64.074219 88.144531 Z M 121.257812 77.519531 L 135.449219 77.519531 L 135.449219 55.894531 L 121.257812 55.894531 Z M 121.257812 55.109375 L 135.449219 55.109375 L 135.449219 33.488281 L 121.257812 33.488281 Z M 143.316406 79.367188 C 143.316406 80.175781 143.96875 80.828125 144.777344 80.828125 L 144.914062 80.828125 C 145.722656 80.828125 146.375 80.175781 146.375 79.367188 C 146.375 78.5625 145.722656 77.910156 144.914062 77.910156 L 144.777344 77.910156 C 143.96875 77.910156 143.316406 78.5625 143.316406 79.367188 Z M 143.316406 72.550781 C 143.316406 73.355469 143.96875 74.011719 144.777344 74.011719 L 144.914062 74.011719 C 145.722656 74.011719 146.375 73.355469 146.375 72.550781 C 146.375 71.746094 145.722656 71.089844 144.914062 71.089844 L 144.777344 71.089844 C 143.96875 71.089844 143.316406 71.746094 143.316406 72.550781 Z M 143.316406 65.734375 C 143.316406 66.539062 143.96875 67.191406 144.777344 67.191406 L 144.914062 67.191406 C 145.722656 67.191406 146.375 66.539062 146.375 65.734375 C 146.375 64.925781 145.722656 64.273438 144.914062 64.273438 L 144.777344 64.273438 C 143.96875 64.273438 143.316406 64.925781 143.316406 65.734375 Z M 143.316406 58.910156 C 143.316406 59.71875 143.96875 60.371094 144.777344 60.371094 L 144.914062 60.371094 C 145.722656 60.371094 146.375 59.71875 146.375 58.910156 C 146.375 58.105469 145.722656 57.453125 144.914062 57.453125 L 144.777344 57.453125 C 143.96875 57.453125 143.316406 58.105469 143.316406 58.910156 Z M 143.316406 52.089844 C 143.316406 52.898438 143.96875 53.550781 144.777344 53.550781 L 144.914062 53.550781 C 145.722656 53.550781 146.375 52.898438 146.375 52.089844 C 146.375 51.285156 145.722656 50.632812 144.914062 50.632812 L 144.777344 50.632812 C 143.96875 50.632812 143.316406 51.285156 143.316406 52.089844 Z M 143.316406 45.273438 C 143.316406 46.078125 143.96875 46.734375 144.777344 46.734375 L 144.914062 46.734375 C 145.722656 46.734375 146.375 46.078125 146.375 45.273438 C 146.375 44.46875 145.722656 43.8125 144.914062 43.8125 L 144.777344 43.8125 C 143.96875 43.8125 143.316406 44.46875 143.316406 45.273438 Z M 143.316406 38.457031 C 143.316406 39.261719 143.96875 39.914062 144.777344 39.914062 L 144.914062 39.914062 C 145.722656 39.914062 146.375 39.261719 146.375 38.457031 C 146.375 37.648438 145.722656 36.996094 144.914062 36.996094 L 144.777344 36.996094 C 143.96875 36.996094 143.316406 37.648438 143.316406 38.457031 Z M 143.316406 31.636719 C 143.316406 32.441406 143.96875 33.09375 144.777344 33.09375 L 144.914062 33.09375 C 145.722656 33.09375 146.375 32.441406 146.375 31.636719 C 146.375 30.828125 145.722656 30.175781 144.914062 30.175781 L 144.777344 30.175781 C 143.96875 30.175781 143.316406 30.828125 143.316406 31.636719 Z M 143.316406 23.816406 C 143.316406 24.949219 144.234375 25.867188 145.367188 25.867188 C 146.5 25.867188 147.421875 24.949219 147.421875 23.816406 C 147.421875 22.6875 146.5 21.769531 145.367188 21.769531 C 144.234375 21.769531 143.316406 22.6875 143.316406 23.816406 Z M 149.523438 79.367188 C 149.523438 80.175781 150.179688 80.828125 150.984375 80.828125 L 163.371094 80.828125 C 164.179688 80.828125 164.832031 80.175781 164.832031 79.367188 C 164.832031 78.5625 164.179688 77.910156 163.371094 77.910156 L 150.984375 77.910156 C 150.179688 77.910156 149.523438 78.5625 149.523438 79.367188 Z M 149.523438 72.550781 C 149.523438 73.355469 150.179688 74.011719 150.984375 74.011719 L 177.488281 74.011719 C 178.296875 74.011719 178.949219 73.355469 178.949219 72.550781 C 178.949219 71.746094 178.296875 71.089844 177.488281 71.089844 L 150.984375 71.089844 C 150.179688 71.089844 149.523438 71.746094 149.523438 72.550781 Z M 149.523438 65.734375 C 149.523438 66.539062 150.179688 67.191406 150.984375 67.191406 L 167.972656 67.191406 C 168.78125 67.191406 169.433594 66.539062 169.433594 65.734375 C 169.433594 64.925781 168.78125 64.273438 167.972656 64.273438 L 150.984375 64.273438 C 150.179688 64.273438 149.523438 64.925781 149.523438 65.734375 Z M 149.523438 58.910156 C 149.523438 59.71875 150.179688 60.371094 150.984375 60.371094 L 173.410156 60.371094 C 174.21875 60.371094 174.871094 59.71875 174.871094 58.910156 C 174.871094 58.105469 174.21875 57.453125 173.410156 57.453125 L 150.984375 57.453125 C 150.179688 57.453125 149.523438 58.105469 149.523438 58.910156 Z M 149.523438 52.089844 C 149.523438 52.898438 150.179688 53.550781 150.984375 53.550781 L 180.417969 53.550781 C 181.222656 53.550781 181.875 52.898438 181.875 52.089844 C 181.875 51.285156 181.222656 50.632812 180.417969 50.632812 L 150.984375 50.632812 C 150.179688 50.632812 149.523438 51.285156 149.523438 52.089844 Z M 149.523438 45.273438 C 149.523438 46.078125 150.179688 46.734375 150.984375 46.734375 L 156.992188 46.734375 C 157.800781 46.734375 158.457031 46.078125 158.457031 45.273438 C 158.457031 44.46875 157.800781 43.8125 156.992188 43.8125 L 150.984375 43.8125 C 150.179688 43.8125 149.523438 44.46875 149.523438 45.273438 Z M 149.523438 38.457031 C 149.523438 39.261719 150.179688 39.914062 150.984375 39.914062 L 171.214844 39.914062 C 172.019531 39.914062 172.675781 39.261719 172.675781 38.457031 C 172.675781 37.648438 172.019531 36.996094 171.214844 36.996094 L 150.984375 36.996094 C 150.179688 36.996094 149.523438 37.648438 149.523438 38.457031 Z M 149.523438 31.636719 C 149.523438 32.441406 150.179688 33.09375 150.984375 33.09375 L 160.273438 33.09375 C 161.082031 33.09375 161.734375 32.441406 161.734375 31.636719 C 161.734375 30.828125 161.082031 30.175781 160.273438 30.175781 L 150.984375 30.175781 C 150.179688 30.175781 149.523438 30.828125 149.523438 31.636719 Z M 151.085938 23.816406 C 151.085938 24.949219 152.003906 25.867188 153.136719 25.867188 C 154.269531 25.867188 155.1875 24.949219 155.1875 23.816406 C 155.1875 22.6875 154.269531 21.769531 153.136719 21.769531 C 152.003906 21.769531 151.085938 22.6875 151.085938 23.816406 Z M 193.664062 43.8125 L 164.234375 43.8125 C 163.425781 43.8125 162.773438 44.46875 162.773438 45.273438 C 162.773438 46.078125 163.425781 46.734375 164.234375 46.734375 L 193.664062 46.734375 C 194.472656 46.734375 195.128906 46.078125 195.128906 45.273438 C 195.128906 44.46875 194.472656 43.8125 193.664062 43.8125 Z M 194.289062 52.089844 C 194.289062 51.285156 193.636719 50.632812 192.832031 50.632812 L 186.824219 50.632812 C 186.019531 50.632812 185.363281 51.285156 185.363281 52.089844 C 185.363281 52.898438 186.019531 53.550781 186.824219 53.550781 L 192.832031 53.550781 C 193.636719 53.550781 194.289062 52.898438 194.289062 52.089844 Z M 193.558594 65.734375 C 193.558594 64.925781 192.90625 64.273438 192.101562 64.273438 L 186.09375 64.273438 C 185.285156 64.273438 184.632812 64.925781 184.632812 65.734375 C 184.632812 66.539062 185.285156 67.191406 186.09375 67.191406 L 192.101562 67.191406 C 192.90625 67.191406 193.558594 66.539062 193.558594 65.734375 Z M 181.429688 65.734375 C 181.429688 64.925781 180.777344 64.273438 179.96875 64.273438 L 173.960938 64.273438 C 173.15625 64.273438 172.503906 64.925781 172.503906 65.734375 C 172.503906 66.539062 173.15625 67.191406 173.960938 67.191406 L 179.96875 67.191406 C 180.777344 67.191406 181.429688 66.539062 181.429688 65.734375 Z M 187.210938 79.367188 C 187.210938 78.5625 186.558594 77.910156 185.75 77.910156 L 168.765625 77.910156 C 167.957031 77.910156 167.304688 78.5625 167.304688 79.367188 C 167.304688 80.175781 167.957031 80.828125 168.765625 80.828125 L 185.75 80.828125 C 186.558594 80.828125 187.210938 80.175781 187.210938 79.367188 Z M 227.410156 77.519531 L 245.980469 77.519531 L 245.980469 55.894531 L 227.410156 55.894531 Z M 227.410156 55.109375 L 245.980469 55.109375 L 245.980469 33.488281 L 227.410156 33.488281 Z M 254.808594 76.179688 L 331.3125 76.179688 L 331.3125 36.996094 L 254.808594 36.996094 Z M 262.578125 23.816406 C 262.578125 24.949219 263.496094 25.867188 264.628906 25.867188 C 265.761719 25.867188 266.679688 24.949219 266.679688 23.816406 C 266.679688 22.6875 265.761719 21.769531 264.628906 21.769531 C 263.496094 21.769531 262.578125 22.6875 262.578125 23.816406 Z M 316.203125 80.4375 L 304.0625 80.4375 L 304.0625 81.21875 L 316.203125 81.21875 Z M 316.203125 83.046875 L 311.121094 83.046875 L 311.121094 83.832031 L 316.203125 83.832031 Z M 309.144531 83.832031 L 309.144531 83.046875 L 304.0625 83.046875 L 304.0625 83.832031 Z M 312.046875 85.664062 L 304.0625 85.664062 L 304.0625 86.445312 L 312.046875 86.445312 Z M 291.105469 80.4375 L 278.964844 80.4375 L 278.964844 81.21875 L 291.105469 81.21875 Z M 291.105469 83.046875 L 286.023438 83.046875 L 286.023438 83.832031 L 291.105469 83.832031 Z M 284.046875 83.832031 L 284.046875 83.046875 L 278.964844 83.046875 L 278.964844 83.832031 Z M 286.949219 85.664062 L 278.964844 85.664062 L 278.964844 86.445312 L 286.949219 86.445312 Z M 29.296875 93.34375 L 29.296875 20.554688 C 29.296875 18.390625 31.050781 16.636719 33.214844 16.636719 L 117.339844 16.636719 C 119.503906 16.636719 121.257812 18.390625 121.257812 20.554688 L 121.257812 32.703125 L 135.449219 32.703125 L 135.449219 20.554688 C 135.449219 18.390625 137.203125 16.636719 139.367188 16.636719 L 223.492188 16.636719 C 225.65625 16.636719 227.410156 18.390625 227.410156 20.554688 L 227.410156 32.703125 L 245.980469 32.703125 L 245.980469 20.554688 C 245.980469 18.390625 247.734375 16.636719 249.902344 16.636719 L 334.019531 16.636719 C 336.191406 16.636719 337.941406 18.390625 337.941406 20.554688 L 337.941406 77.519531 L 348.078125 77.519531 C 348.234375 77.777344 348.382812 78.042969 348.535156 78.304688 L 337.941406 78.304688 L 337.941406 93.34375 C 337.941406 95.507812 336.191406 97.261719 334.019531 97.261719 L 249.902344 97.261719 C 247.734375 97.261719 245.980469 95.507812 245.980469 93.34375 L 245.980469 78.304688 L 227.410156 78.304688 L 227.410156 85.191406 C 227.410156 87.355469 225.65625 89.109375 223.492188 89.109375 L 139.367188 89.109375 C 137.203125 89.109375 135.449219 87.355469 135.449219 85.191406 L 135.449219 78.304688 L 121.257812 78.304688 L 121.257812 93.34375 C 121.257812 95.507812 119.503906 97.261719 117.339844 97.261719 L 33.214844 97.261719 C 31.050781 97.261719 29.296875 95.507812 29.296875 93.34375 Z M 299.3125 114.074219 C 298.878906 114.074219 298.527344 114.425781 298.527344 114.855469 C 298.527344 115.289062 298.878906 115.640625 299.3125 115.640625 L 315.15625 115.640625 C 315.589844 115.640625 315.9375 115.289062 315.9375 114.855469 C 315.9375 114.425781 315.589844 114.074219 315.15625 114.074219 Z M 316.472656 206.621094 C 316.472656 206.191406 316.121094 205.835938 315.6875 205.835938 L 294.898438 205.835938 C 294.464844 205.835938 294.113281 206.191406 294.113281 206.621094 C 294.113281 207.054688 294.464844 207.40625 294.898438 207.40625 L 315.6875 207.40625 C 316.121094 207.40625 316.472656 207.054688 316.472656 206.621094 Z M 307.785156 221.984375 C 307.785156 221.550781 307.433594 221.199219 307 221.199219 L 277.007812 221.199219 C 276.578125 221.199219 276.226562 221.550781 276.226562 221.984375 C 276.226562 222.414062 276.578125 222.765625 277.007812 222.765625 L 307 222.765625 C 307.433594 222.765625 307.785156 222.414062 307.785156 221.984375 Z M 307.140625 227.101562 C 307.140625 226.671875 306.789062 226.320312 306.355469 226.320312 L 276.367188 226.320312 C 275.929688 226.320312 275.582031 226.671875 275.582031 227.101562 C 275.582031 227.535156 275.929688 227.886719 276.367188 227.886719 L 306.355469 227.886719 C 306.789062 227.886719 307.140625 227.535156 307.140625 227.101562 Z M 277.511719 211.738281 C 277.511719 212.175781 277.863281 212.523438 278.296875 212.523438 L 302.53125 212.523438 C 302.964844 212.523438 303.316406 212.175781 303.316406 211.738281 C 303.316406 211.308594 302.964844 210.957031 302.53125 210.957031 L 278.296875 210.957031 C 277.863281 210.957031 277.511719 211.308594 277.511719 211.738281 Z M 278.15625 206.621094 C 278.15625 207.054688 278.507812 207.40625 278.941406 207.40625 L 289.335938 207.40625 C 289.769531 207.40625 290.121094 207.054688 290.121094 206.621094 C 290.121094 206.191406 289.769531 205.835938 289.335938 205.835938 L 278.941406 205.835938 C 278.507812 205.835938 278.15625 206.191406 278.15625 206.621094 Z M 278.800781 201.503906 C 278.800781 201.933594 279.152344 202.285156 279.585938 202.285156 L 309.574219 202.285156 C 310.011719 202.285156 310.359375 201.933594 310.359375 201.503906 C 310.359375 201.066406 310.011719 200.71875 309.574219 200.71875 L 279.585938 200.71875 C 279.152344 200.71875 278.800781 201.066406 278.800781 201.503906 Z M 273.03125 201.503906 C 273.03125 201.066406 272.675781 200.71875 272.246094 200.71875 L 267.015625 200.71875 C 266.582031 200.71875 266.230469 201.066406 266.230469 201.503906 C 266.230469 201.933594 266.582031 202.285156 267.015625 202.285156 L 272.246094 202.285156 C 272.675781 202.285156 273.03125 201.933594 273.03125 201.503906 Z M 272.382812 206.621094 C 272.382812 206.191406 272.035156 205.835938 271.597656 205.835938 L 266.371094 205.835938 C 265.9375 205.835938 265.585938 206.191406 265.585938 206.621094 C 265.585938 207.054688 265.9375 207.40625 266.371094 207.40625 L 271.597656 207.40625 C 272.035156 207.40625 272.382812 207.054688 272.382812 206.621094 Z M 271.738281 211.738281 C 271.738281 211.308594 271.390625 210.957031 270.957031 210.957031 L 265.726562 210.957031 C 265.292969 210.957031 264.941406 211.308594 264.941406 211.738281 C 264.941406 212.175781 265.292969 212.523438 265.726562 212.523438 L 270.957031 212.523438 C 271.390625 212.523438 271.738281 212.175781 271.738281 211.738281 Z M 270.453125 221.984375 C 270.453125 221.550781 270.101562 221.199219 269.667969 221.199219 L 264.4375 221.199219 C 264.007812 221.199219 263.65625 221.550781 263.65625 221.984375 C 263.65625 222.414062 264.007812 222.765625 264.4375 222.765625 L 269.667969 222.765625 C 270.101562 222.765625 270.453125 222.414062 270.453125 221.984375 Z M 269.808594 227.101562 C 269.808594 226.671875 269.457031 226.320312 269.023438 226.320312 L 263.796875 226.320312 C 263.359375 226.320312 263.011719 226.671875 263.011719 227.101562 C 263.011719 227.535156 263.359375 227.886719 263.796875 227.886719 L 269.023438 227.886719 C 269.457031 227.886719 269.808594 227.535156 269.808594 227.101562 Z M 326.84375 198.351562 L 322.53125 232.632812 L 313.117188 232.632812 C 313.195312 232.515625 313.253906 232.378906 313.253906 232.222656 C 313.253906 231.789062 312.902344 231.441406 312.46875 231.441406 L 291.679688 231.441406 C 291.246094 231.441406 290.894531 231.789062 290.894531 232.222656 C 290.894531 232.378906 290.949219 232.515625 291.027344 232.632812 L 286.765625 232.632812 C 286.84375 232.515625 286.902344 232.378906 286.902344 232.222656 C 286.902344 231.789062 286.550781 231.441406 286.117188 231.441406 L 275.71875 231.441406 C 275.289062 231.441406 274.933594 231.789062 274.933594 232.222656 C 274.933594 232.378906 274.992188 232.515625 275.070312 232.632812 L 269.027344 232.632812 C 269.109375 232.515625 269.164062 232.378906 269.164062 232.222656 C 269.164062 231.789062 268.8125 231.441406 268.378906 231.441406 L 263.152344 231.441406 C 262.71875 231.441406 262.367188 231.789062 262.367188 232.222656 C 262.367188 232.378906 262.421875 232.515625 262.503906 232.632812 L 257.347656 232.632812 L 261.660156 198.351562 C 261.933594 196.1875 263.910156 194.433594 266.074219 194.433594 L 323.417969 194.433594 C 325.582031 194.433594 327.117188 196.1875 326.84375 198.351562 Z M 215.507812 209.839844 L 209.535156 209.839844 C 208.710938 209.839844 207.960938 210.507812 207.859375 211.328125 C 207.753906 212.152344 208.335938 212.816406 209.160156 212.816406 L 215.136719 212.816406 C 215.960938 212.816406 216.710938 212.152344 216.816406 211.328125 C 216.914062 210.507812 216.332031 209.839844 215.507812 209.839844 Z M 201.421875 209.839844 L 195.449219 209.839844 C 194.625 209.839844 193.875 210.507812 193.769531 211.328125 C 193.667969 212.152344 194.25 212.816406 195.074219 212.816406 L 201.050781 212.816406 C 201.871094 212.816406 202.625 212.152344 202.726562 211.328125 C 202.828125 210.507812 202.246094 209.839844 201.421875 209.839844 Z M 191.1875 197.316406 C 190.546875 197.316406 189.960938 197.835938 189.882812 198.476562 C 189.800781 199.113281 190.257812 199.636719 190.894531 199.636719 C 191.535156 199.636719 192.121094 199.113281 192.203125 198.476562 C 192.285156 197.835938 191.828125 197.316406 191.1875 197.316406 Z M 195.289062 199.636719 C 195.929688 199.636719 196.511719 199.113281 196.59375 198.476562 C 196.675781 197.835938 196.222656 197.316406 195.582031 197.316406 C 194.941406 197.316406 194.355469 197.835938 194.277344 198.476562 C 194.191406 199.113281 194.648438 199.636719 195.289062 199.636719 Z M 199.679688 199.636719 C 200.320312 199.636719 200.90625 199.113281 200.984375 198.476562 C 201.066406 197.835938 200.613281 197.316406 199.972656 197.316406 C 199.332031 197.316406 198.75 197.835938 198.664062 198.476562 C 198.585938 199.113281 199.039062 199.636719 199.679688 199.636719 Z M 211.894531 204.507812 L 200.207031 204.507812 C 199.773438 204.507812 199.421875 204.859375 199.421875 205.292969 C 199.421875 205.726562 199.773438 206.078125 200.207031 206.078125 L 211.894531 206.078125 C 212.328125 206.078125 212.679688 205.726562 212.679688 205.292969 C 212.679688 204.859375 212.328125 204.507812 211.894531 204.507812 Z M 223.765625 194.425781 C 225.933594 194.425781 227.46875 196.183594 227.199219 198.34375 L 225.550781 211.40625 C 225.28125 213.570312 223.304688 215.324219 221.140625 215.324219 L 187.835938 215.324219 C 185.667969 215.324219 184.132812 213.570312 184.40625 211.40625 L 186.050781 198.34375 C 186.320312 196.183594 188.296875 194.425781 190.464844 194.425781 Z M 206.050781 126.347656 C 206.132812 125.707031 205.679688 125.1875 205.039062 125.1875 C 204.402344 125.1875 203.816406 125.707031 203.734375 126.347656 C 203.652344 126.988281 204.105469 127.503906 204.746094 127.503906 C 205.386719 127.503906 205.972656 126.988281 206.050781 126.347656 Z M 247.457031 183.316406 C 247.457031 182.878906 247.105469 182.53125 246.671875 182.53125 L 242.664062 182.53125 C 242.230469 182.53125 241.882812 182.878906 241.882812 183.316406 C 241.882812 183.746094 242.230469 184.097656 242.664062 184.097656 L 246.671875 184.097656 C 247.105469 184.097656 247.457031 183.746094 247.457031 183.316406 Z M 241.710938 143.085938 C 242.140625 143.085938 242.492188 142.734375 242.492188 142.300781 C 242.492188 141.867188 242.140625 141.519531 241.710938 141.519531 L 230.035156 141.519531 C 229.601562 141.519531 229.25 141.867188 229.25 142.300781 C 229.25 142.734375 229.601562 143.085938 230.035156 143.085938 Z M 239.4375 149.164062 L 211.027344 149.164062 C 209.871094 149.164062 208.820312 150.097656 208.675781 151.253906 L 207.8125 158.078125 C 207.667969 159.230469 208.488281 160.167969 209.644531 160.167969 L 238.050781 160.167969 C 239.207031 160.167969 240.261719 159.230469 240.40625 158.078125 L 241.261719 151.253906 C 241.410156 150.097656 240.589844 149.164062 239.4375 149.164062 Z M 227.179688 180.335938 L 231.1875 180.335938 C 231.617188 180.335938 231.96875 179.984375 231.96875 179.550781 C 231.96875 179.117188 231.617188 178.769531 231.1875 178.769531 L 227.179688 178.769531 C 226.742188 178.769531 226.394531 179.117188 226.394531 179.550781 C 226.394531 179.984375 226.742188 180.335938 227.179688 180.335938 Z M 234.042969 183.316406 C 234.042969 182.878906 233.6875 182.53125 233.257812 182.53125 L 226.703125 182.53125 C 226.273438 182.53125 225.917969 182.878906 225.917969 183.316406 C 225.917969 183.746094 226.273438 184.097656 226.703125 184.097656 L 233.257812 184.097656 C 233.6875 184.097656 234.042969 183.746094 234.042969 183.316406 Z M 220.480469 179.550781 C 220.480469 179.117188 220.125 178.769531 219.695312 178.769531 L 212.695312 178.769531 C 212.261719 178.769531 211.914062 179.117188 211.914062 179.550781 C 211.914062 179.984375 212.261719 180.335938 212.695312 180.335938 L 219.695312 180.335938 C 220.125 180.335938 220.480469 179.984375 220.480469 179.550781 Z M 217.015625 183.316406 C 217.015625 182.878906 216.664062 182.53125 216.234375 182.53125 L 212.222656 182.53125 C 211.789062 182.53125 211.4375 182.878906 211.4375 183.316406 C 211.4375 183.746094 211.789062 184.097656 212.222656 184.097656 L 216.234375 184.097656 C 216.664062 184.097656 217.015625 183.746094 217.015625 183.316406 Z M 204.65625 179.550781 C 204.65625 179.117188 204.308594 178.769531 203.875 178.769531 L 195.859375 178.769531 C 195.425781 178.769531 195.074219 179.117188 195.074219 179.550781 C 195.074219 179.984375 195.425781 180.335938 195.859375 180.335938 L 203.875 180.335938 C 204.308594 180.335938 204.65625 179.984375 204.65625 179.550781 Z M 200.984375 183.316406 C 200.984375 182.878906 200.632812 182.53125 200.199219 182.53125 L 195.386719 182.53125 C 194.953125 182.53125 194.601562 182.878906 194.601562 183.316406 C 194.601562 183.746094 194.953125 184.097656 195.386719 184.097656 L 200.199219 184.097656 C 200.632812 184.097656 200.984375 183.746094 200.984375 183.316406 Z M 209.015625 142.300781 C 209.015625 142.734375 209.367188 143.085938 209.800781 143.085938 L 224.613281 143.085938 C 225.046875 143.085938 225.394531 142.734375 225.394531 142.300781 C 225.394531 141.867188 225.046875 141.519531 224.613281 141.519531 L 209.800781 141.519531 C 209.367188 141.519531 209.015625 141.867188 209.015625 142.300781 Z M 242.351562 179.550781 C 242.351562 179.984375 242.707031 180.335938 243.136719 180.335938 L 250.136719 180.335938 C 250.566406 180.335938 250.917969 179.984375 250.917969 179.550781 C 250.917969 179.117188 250.566406 178.769531 250.136719 178.769531 L 243.136719 178.769531 C 242.707031 178.769531 242.351562 179.117188 242.351562 179.550781 Z M 248.929688 188.695312 L 191.589844 188.695312 C 189.421875 188.695312 187.886719 186.941406 188.160156 184.777344 L 194.789062 132.058594 L 259.976562 132.058594 L 260.917969 124.554688 L 253.34375 184.777344 C 253.074219 186.941406 251.097656 188.695312 248.929688 188.695312 Z M 336.738281 227.082031 L 328.824219 227.082031 C 328.390625 227.082031 328.039062 227.433594 328.039062 227.863281 C 328.039062 228.296875 328.390625 228.648438 328.824219 228.648438 L 336.738281 228.648438 C 337.167969 228.648438 337.523438 228.296875 337.523438 227.863281 C 337.523438 227.433594 337.167969 227.082031 336.738281 227.082031 Z M 340.605469 221.960938 L 329.472656 221.960938 C 329.035156 221.960938 328.6875 222.3125 328.6875 222.742188 C 328.6875 223.175781 329.035156 223.527344 329.472656 223.527344 L 340.605469 223.527344 C 341.039062 223.527344 341.386719 223.175781 341.386719 222.742188 C 341.386719 222.3125 341.039062 221.960938 340.605469 221.960938 Z M 330.113281 218.40625 L 336.722656 218.40625 C 337.15625 218.40625 337.507812 218.054688 337.507812 217.625 C 337.507812 217.191406 337.15625 216.839844 336.722656 216.839844 L 330.113281 216.839844 C 329.679688 216.839844 329.328125 217.191406 329.328125 217.625 C 329.328125 218.054688 329.679688 218.40625 330.113281 218.40625 Z M 344.441406 159 L 336.53125 159 C 336.09375 159 335.746094 159.351562 335.746094 159.785156 C 335.746094 160.21875 336.09375 160.570312 336.53125 160.570312 L 344.441406 160.570312 C 344.871094 160.570312 345.222656 160.21875 345.222656 159.785156 C 345.222656 159.351562 344.871094 159 344.441406 159 Z M 348.304688 153.882812 L 337.171875 153.882812 C 336.738281 153.882812 336.386719 154.230469 336.386719 154.667969 C 336.386719 155.097656 336.738281 155.449219 337.171875 155.449219 L 348.304688 155.449219 C 348.742188 155.449219 349.089844 155.097656 349.089844 154.667969 C 349.089844 154.230469 348.742188 153.882812 348.304688 153.882812 Z M 337.816406 148.761719 C 337.382812 148.761719 337.03125 149.113281 337.03125 149.542969 C 337.03125 149.980469 337.382812 150.328125 337.816406 150.328125 L 344.425781 150.328125 C 344.859375 150.328125 345.207031 149.980469 345.207031 149.542969 C 345.207031 149.113281 344.859375 148.761719 344.425781 148.761719 Z M 325.851562 132.058594 C 325.851562 131.625 325.5 131.273438 325.066406 131.273438 L 311.851562 131.273438 C 311.417969 131.273438 311.066406 131.625 311.066406 132.058594 C 311.066406 132.492188 311.417969 132.839844 311.851562 132.839844 L 325.066406 132.839844 C 325.5 132.839844 325.851562 132.492188 325.851562 132.058594 Z M 319.230469 142.300781 C 319.230469 141.867188 318.882812 141.519531 318.449219 141.519531 L 306.902344 141.519531 C 306.46875 141.519531 306.117188 141.867188 306.117188 142.300781 C 306.117188 142.734375 306.46875 143.085938 306.902344 143.085938 L 318.449219 143.085938 C 318.882812 143.085938 319.230469 142.734375 319.230469 142.300781 Z M 316.011719 167.902344 C 316.011719 167.46875 315.664062 167.117188 315.226562 167.117188 L 303.679688 167.117188 C 303.25 167.117188 302.898438 167.46875 302.898438 167.902344 C 302.898438 168.335938 303.25 168.683594 303.679688 168.683594 L 315.226562 168.683594 C 315.664062 168.683594 316.011719 168.335938 316.011719 167.902344 Z M 310.28125 173.023438 C 310.28125 172.589844 309.929688 172.238281 309.496094 172.238281 L 295.542969 172.238281 C 295.109375 172.238281 294.761719 172.589844 294.761719 173.023438 C 294.761719 173.453125 295.109375 173.804688 295.542969 173.804688 L 309.496094 173.804688 C 309.929688 173.804688 310.28125 173.453125 310.28125 173.023438 Z M 302.371094 178.140625 C 302.371094 177.710938 302.019531 177.359375 301.589844 177.359375 L 282.523438 177.359375 C 282.089844 177.359375 281.738281 177.710938 281.738281 178.140625 C 281.738281 178.574219 282.089844 178.925781 282.523438 178.925781 L 301.589844 178.925781 C 302.019531 178.925781 302.371094 178.574219 302.371094 178.140625 Z M 281.761719 132.058594 C 281.761719 131.625 281.410156 131.273438 280.976562 131.273438 L 275.75 131.273438 C 275.316406 131.273438 274.964844 131.625 274.964844 132.058594 C 274.964844 132.492188 275.316406 132.839844 275.75 132.839844 L 280.976562 132.839844 C 281.410156 132.839844 281.761719 132.492188 281.761719 132.058594 Z M 281.117188 137.179688 C 281.117188 136.75 280.769531 136.394531 280.332031 136.394531 L 275.105469 136.394531 C 274.671875 136.394531 274.324219 136.75 274.324219 137.179688 C 274.324219 137.613281 274.671875 137.964844 275.105469 137.964844 L 280.332031 137.964844 C 280.769531 137.964844 281.117188 137.613281 281.117188 137.179688 Z M 280.472656 142.300781 C 280.472656 141.867188 280.125 141.519531 279.691406 141.519531 L 274.464844 141.519531 C 274.027344 141.519531 273.679688 141.867188 273.679688 142.300781 C 273.679688 142.734375 274.027344 143.085938 274.464844 143.085938 L 279.691406 143.085938 C 280.125 143.085938 280.472656 142.734375 280.472656 142.300781 Z M 279.832031 147.421875 C 279.832031 146.988281 279.476562 146.636719 279.046875 146.636719 L 273.816406 146.636719 C 273.386719 146.636719 273.03125 146.988281 273.03125 147.421875 C 273.03125 147.851562 273.386719 148.203125 273.816406 148.203125 L 279.046875 148.203125 C 279.476562 148.203125 279.832031 147.851562 279.832031 147.421875 Z M 279.1875 152.542969 C 279.1875 152.105469 278.835938 151.757812 278.402344 151.757812 L 273.171875 151.757812 C 272.742188 151.757812 272.390625 152.105469 272.390625 152.542969 C 272.390625 152.972656 272.742188 153.324219 273.171875 153.324219 L 278.402344 153.324219 C 278.835938 153.324219 279.1875 152.972656 279.1875 152.542969 Z M 277.898438 162.78125 C 277.898438 162.347656 277.546875 162 277.113281 162 L 271.886719 162 C 271.453125 162 271.101562 162.347656 271.101562 162.78125 C 271.101562 163.214844 271.453125 163.566406 271.886719 163.566406 L 277.113281 163.566406 C 277.546875 163.566406 277.898438 163.214844 277.898438 162.78125 Z M 277.253906 167.902344 C 277.253906 167.46875 276.902344 167.117188 276.46875 167.117188 L 271.242188 167.117188 C 270.808594 167.117188 270.457031 167.46875 270.457031 167.902344 C 270.457031 168.335938 270.808594 168.683594 271.242188 168.683594 L 276.46875 168.683594 C 276.902344 168.683594 277.253906 168.335938 277.253906 167.902344 Z M 276.609375 173.023438 C 276.609375 172.589844 276.257812 172.238281 275.828125 172.238281 L 270.597656 172.238281 C 270.164062 172.238281 269.8125 172.589844 269.8125 173.023438 C 269.8125 173.453125 270.164062 173.804688 270.597656 173.804688 L 275.828125 173.804688 C 276.257812 173.804688 276.609375 173.453125 276.609375 173.023438 Z M 275.96875 178.140625 C 275.96875 177.710938 275.613281 177.359375 275.183594 177.359375 L 269.953125 177.359375 C 269.523438 177.359375 269.167969 177.710938 269.167969 178.140625 C 269.167969 178.574219 269.523438 178.925781 269.953125 178.925781 L 275.183594 178.925781 C 275.613281 178.925781 275.96875 178.574219 275.96875 178.140625 Z M 282.382812 173.023438 C 282.382812 173.453125 282.734375 173.804688 283.167969 173.804688 L 291.078125 173.804688 C 291.507812 173.804688 291.863281 173.453125 291.863281 173.023438 C 291.863281 172.589844 291.507812 172.238281 291.078125 172.238281 L 283.167969 172.238281 C 282.734375 172.238281 282.382812 172.589844 282.382812 173.023438 Z M 283.027344 167.902344 C 283.027344 168.335938 283.378906 168.683594 283.808594 168.683594 L 299.21875 168.683594 C 299.648438 168.683594 300 168.335938 300 167.902344 C 300 167.46875 299.648438 167.117188 299.21875 167.117188 L 283.808594 167.117188 C 283.378906 167.117188 283.027344 167.46875 283.027344 167.902344 Z M 283.667969 162.78125 C 283.667969 163.214844 284.023438 163.566406 284.453125 163.566406 L 291.0625 163.566406 C 291.496094 163.566406 291.847656 163.214844 291.847656 162.78125 C 291.847656 162.347656 291.496094 162 291.0625 162 L 284.453125 162 C 284.023438 162 283.667969 162.347656 283.667969 162.78125 Z M 284.960938 152.542969 C 284.960938 152.972656 285.3125 153.324219 285.742188 153.324219 L 295.273438 153.324219 C 295.710938 153.324219 296.058594 152.972656 296.058594 152.542969 C 296.058594 152.105469 295.710938 151.757812 295.273438 151.757812 L 285.742188 151.757812 C 285.3125 151.757812 284.960938 152.105469 284.960938 152.542969 Z M 285.601562 147.421875 C 285.601562 147.851562 285.953125 148.203125 286.386719 148.203125 L 294.296875 148.203125 C 294.730469 148.203125 295.082031 147.851562 295.082031 147.421875 C 295.082031 146.988281 294.730469 146.636719 294.296875 146.636719 L 286.386719 146.636719 C 285.953125 146.636719 285.601562 146.988281 285.601562 147.421875 Z M 286.246094 142.300781 C 286.246094 142.734375 286.597656 143.085938 287.03125 143.085938 L 302.4375 143.085938 C 302.871094 143.085938 303.222656 142.734375 303.222656 142.300781 C 303.222656 141.867188 302.871094 141.519531 302.4375 141.519531 L 287.03125 141.519531 C 286.597656 141.519531 286.246094 141.867188 286.246094 142.300781 Z M 286.890625 137.179688 C 286.890625 137.613281 287.242188 137.964844 287.671875 137.964844 L 294.28125 137.964844 C 294.71875 137.964844 295.066406 137.613281 295.066406 137.179688 C 295.066406 136.75 294.71875 136.394531 294.28125 136.394531 L 287.671875 136.394531 C 287.242188 136.394531 286.890625 136.75 286.890625 137.179688 Z M 287.535156 132.058594 C 287.535156 132.492188 287.886719 132.839844 288.320312 132.839844 L 307.386719 132.839844 C 307.816406 132.839844 308.167969 132.492188 308.167969 132.058594 C 308.167969 131.625 307.816406 131.273438 307.386719 131.273438 L 288.320312 131.273438 C 287.886719 131.273438 287.535156 131.625 287.535156 132.058594 Z M 311.035156 137.964844 C 311.46875 137.964844 311.816406 137.613281 311.816406 137.179688 C 311.816406 136.75 311.46875 136.394531 311.035156 136.394531 L 297.816406 136.394531 C 297.386719 136.394531 297.03125 136.75 297.03125 137.179688 C 297.03125 137.613281 297.386719 137.964844 297.816406 137.964844 Z M 304.789062 147.421875 C 304.789062 146.988281 304.433594 146.636719 304.003906 146.636719 L 298.765625 146.636719 C 298.328125 146.636719 297.980469 146.988281 297.980469 147.421875 C 297.980469 147.851562 298.328125 148.203125 298.765625 148.203125 L 304.003906 148.203125 C 304.433594 148.203125 304.789062 147.851562 304.789062 147.421875 Z M 307.8125 162 L 294.597656 162 C 294.164062 162 293.8125 162.347656 293.8125 162.78125 C 293.8125 163.214844 294.164062 163.566406 294.597656 163.566406 L 307.8125 163.566406 C 308.25 163.566406 308.597656 163.214844 308.597656 162.78125 C 308.597656 162.347656 308.25 162 307.8125 162 Z M 312.367188 153.324219 C 312.796875 153.324219 313.152344 152.972656 313.152344 152.542969 C 313.152344 152.105469 312.796875 151.757812 312.367188 151.757812 L 298.703125 151.757812 C 298.269531 151.757812 297.917969 152.105469 297.917969 152.542969 C 297.917969 152.972656 298.269531 153.324219 298.703125 153.324219 Z M 328.550781 184.777344 C 328.277344 186.941406 326.304688 188.695312 324.136719 188.695312 L 266.796875 188.695312 C 264.628906 188.695312 263.09375 186.941406 263.367188 184.777344 L 270.941406 124.554688 C 271.210938 122.390625 273.191406 120.636719 275.355469 120.636719 L 332.695312 120.636719 C 334.863281 120.636719 336.398438 122.390625 336.128906 124.554688 Z M 123.558594 144.742188 L 122.828125 138.730469 C 122.125 132.890625 123.84375 127.375 127.152344 123.117188 L 95.027344 123.117188 L 95.027344 144.652344 C 95.027344 144.683594 95.015625 144.710938 95.015625 144.742188 Z M 88.441406 122.394531 L 80.671875 122.394531 L 80.671875 141.175781 L 88.441406 141.175781 Z M 76.730469 123.117188 L 76.730469 120.042969 L 68.960938 120.042969 L 68.960938 141.175781 L 76.730469 141.175781 Z M 65.015625 125.210938 L 57.246094 125.210938 L 57.246094 141.175781 L 65.015625 141.175781 Z M 53.304688 134.648438 L 45.535156 134.648438 L 45.535156 141.175781 L 53.304688 141.175781 Z M 41.59375 131.328125 L 33.824219 131.328125 L 33.824219 141.175781 L 41.59375 141.175781 Z M 120.980469 167.929688 L 2.722656 167.929688 C 2.703125 167.671875 2.679688 167.40625 2.664062 167.148438 L 121.203125 167.148438 L 123.351562 159.578125 C 124.277344 156.3125 124.542969 152.902344 124.136719 149.535156 L 123.652344 145.523438 L 94.917969 145.523438 C 94.519531 147.265625 92.96875 148.570312 91.105469 148.570312 L 33.214844 148.570312 C 31.351562 148.570312 29.796875 147.265625 29.398438 145.523438 L 2.949219 145.523438 C 2.976562 145.261719 3.007812 145 3.035156 144.742188 L 29.304688 144.742188 C 29.304688 144.710938 29.296875 144.683594 29.296875 144.652344 L 29.296875 123.117188 L 7.128906 123.117188 C 7.203125 122.851562 7.285156 122.59375 7.363281 122.332031 L 29.296875 122.332031 L 29.296875 114.308594 C 29.296875 112.144531 31.050781 110.390625 33.214844 110.390625 L 91.105469 110.390625 C 93.265625 110.390625 95.027344 112.144531 95.027344 114.308594 L 95.027344 122.332031 L 127.792969 122.332031 C 131.683594 117.78125 137.464844 114.855469 144.003906 114.855469 C 150.460938 114.855469 156.296875 117.738281 160.226562 122.332031 L 180.875 122.332031 L 180.789062 123.117188 L 160.867188 123.117188 C 163.234375 126.167969 164.800781 129.890625 165.21875 133.984375 L 165.433594 136.054688 L 169.902344 144.742188 L 178.390625 144.742188 L 178.300781 145.523438 L 170.1875 145.523438 C 170.207031 146.019531 169.898438 146.5 169.378906 146.652344 L 167.628906 147.167969 C 167.117188 147.3125 166.78125 147.796875 166.820312 148.328125 C 167.089844 151.8125 167.875 164.25 165.433594 165.5625 C 162.589844 167.09375 149.015625 164.351562 149.015625 164.351562 C 148.757812 165.273438 148.546875 166.207031 148.371094 167.148438 L 175.902344 167.148438 L 175.816406 167.929688 L 148.234375 167.929688 C 147.753906 170.839844 147.632812 173.792969 147.886719 176.726562 C 144.84375 175.6875 140.777344 174.097656 134.453125 172.8125 C 128.394531 171.582031 122.550781 172.96875 119.238281 174.074219 Z M 103.195312 231.039062 C 102.230469 224.949219 100.960938 218.667969 99.371094 212.746094 C 99.34375 212.644531 99.316406 212.542969 99.289062 212.441406 C 98.71875 210.347656 98.113281 208.296875 97.464844 206.320312 C 95.292969 199.722656 97.355469 193.011719 101.855469 188.679688 C 101.636719 188.777344 101.417969 188.863281 101.203125 188.96875 C 100.835938 189.152344 100.484375 189.351562 100.140625 189.554688 L 5.707031 189.554688 C 5.761719 189.816406 5.816406 190.078125 5.871094 190.339844 L 98.933594 190.339844 C 92.148438 195.203125 89.960938 204.519531 94.15625 211.964844 L 11.882812 211.964844 C 11.96875 212.222656 12.054688 212.488281 12.144531 212.746094 L 94.59375 212.746094 Z M 176.75 346.910156 C 179.949219 346.910156 183.15625 346.734375 186.367188 346.40625 L 165.851562 346.40625 C 169.472656 346.730469 173.105469 346.910156 176.75 346.910156 Z M 132.792969 324.027344 C 132.035156 324.027344 131.292969 324.015625 130.5625 324 L 101.167969 324 C 101.601562 324.265625 102.035156 324.523438 102.46875 324.785156 L 243.5 324.785156 C 243.902344 324.523438 244.304688 324.261719 244.707031 324 L 133.75 324 C 133.429688 324.003906 133.121094 324.027344 132.792969 324.027344 Z M 101.660156 301.59375 L 71.433594 301.59375 C 71.722656 301.855469 72.011719 302.117188 72.300781 302.375 L 101.703125 302.375 C 101.6875 302.117188 101.671875 301.855469 101.660156 301.59375 Z M 167.914062 302.375 L 272.285156 302.375 C 272.566406 302.117188 272.847656 301.855469 273.128906 301.59375 L 168.191406 301.59375 C 168.101562 301.847656 168.011719 302.105469 167.914062 302.375 Z M 102.277344 279.1875 L 50.050781 279.1875 C 50.273438 279.449219 50.496094 279.707031 50.714844 279.96875 L 102.199219 279.96875 C 102.222656 279.707031 102.25 279.445312 102.277344 279.1875 Z M 105.535156 256.777344 L 33.699219 256.777344 C 33.867188 257.039062 34.039062 257.300781 34.207031 257.558594 L 105.535156 257.558594 C 105.535156 257.304688 105.535156 257.046875 105.535156 256.777344 Z M 226.382812 268.019531 C 228.21875 268.316406 230.027344 268.597656 231.777344 268.867188 L 231.578125 268.558594 L 226.925781 267.570312 Z M 267.378906 279.1875 L 279.183594 279.1875 L 275.449219 276.582031 L 268.769531 278.109375 Z M 176.816406 234.371094 L 326.402344 234.371094 C 326.25 234.628906 326.101562 234.894531 325.949219 235.152344 L 177.214844 235.152344 C 182.183594 244.773438 186.738281 252.769531 189.488281 256.777344 L 312.007812 256.777344 C 311.824219 257.039062 311.640625 257.300781 311.457031 257.558594 L 190.039062 257.558594 C 190.753906 258.550781 191.3125 259.199219 191.675781 259.441406 C 194.589844 261.382812 201.792969 263.332031 210.207031 265.074219 L 223.550781 260.042969 C 224.914062 259.53125 226.441406 259.707031 227.652344 260.515625 L 234.242188 264.917969 L 236.996094 269.644531 C 242.140625 270.386719 246.371094 270.945312 248.730469 271.246094 L 256.035156 270.96875 L 271.707031 265.558594 C 273.113281 265.074219 274.667969 265.296875 275.882812 266.160156 L 282.488281 270.84375 L 287.03125 279.1875 L 294.605469 279.1875 C 294.378906 279.445312 294.15625 279.710938 293.933594 279.96875 L 287.457031 279.96875 L 287.609375 280.25 C 287.898438 280.785156 287.679688 281.457031 287.125 281.710938 C 286.019531 281.636719 284.753906 281.082031 283.726562 280.316406 L 283.992188 282.117188 C 284.113281 282.941406 283.441406 283.671875 282.609375 283.609375 C 281.3125 283.519531 280.246094 282.554688 280.023438 281.277344 L 279.792969 279.96875 L 266.367188 279.96875 L 263.15625 282.453125 C 261.640625 283.617188 259.878906 284.398438 258.019531 284.738281 C 256.808594 284.960938 255.5625 284.921875 254.34375 284.757812 L 246.933594 283.734375 L 191.765625 283.34375 C 185.105469 283.066406 180.199219 281.800781 176.46875 279.96875 L 162.398438 279.96875 C 162.359375 279.84375 162.320312 279.71875 162.285156 279.589844 L 162.28125 279.589844 C 162.25 279.484375 162.21875 279.382812 162.191406 279.273438 C 162.179688 279.246094 162.171875 279.214844 162.164062 279.1875 C 160.984375 275.1875 160.136719 271.042969 160.136719 267.382812 C 160.136719 265.296875 160.445312 263.097656 160.949219 260.820312 C 161.078125 260.84375 161.210938 260.871094 161.339844 260.894531 L 153.066406 244.933594 C 152.632812 245.023438 152.1875 245.074219 151.734375 245.074219 C 147.617188 245.074219 143.554688 241.214844 140.503906 235.152344 L 21.539062 235.152344 C 21.414062 234.894531 21.28125 234.632812 21.152344 234.371094 L 140.121094 234.371094 C 137.878906 229.648438 136.234375 223.714844 135.605469 217.257812 C 135.097656 212.078125 135.308594 207.238281 136.089844 203.085938 C 136.03125 197.65625 137.492188 192.917969 141.542969 191.03125 C 141.867188 190.878906 142.195312 190.761719 142.519531 190.636719 C 143.679688 189.859375 144.941406 189.441406 146.296875 189.441406 C 146.847656 189.441406 147.394531 189.515625 147.941406 189.648438 C 153.371094 189.773438 158.203125 193.238281 160.492188 198.988281 C 165.070312 210.496094 171.179688 223.421875 176.808594 234.371094 Z M 170.84375 212.746094 L 170.929688 211.964844 L 167.792969 211.964844 C 167.882812 212.222656 167.972656 212.488281 168.058594 212.746094 Z M 173.417969 189.554688 L 158.058594 189.554688 C 158.144531 189.714844 158.238281 189.875 158.320312 190.039062 C 158.371094 190.136719 158.421875 190.238281 158.46875 190.339844 L 173.332031 190.339844 Z M 357.425781 99.925781 L 16.632812 99.925781 C 16.492188 100.1875 16.355469 100.449219 16.214844 100.710938 L 357.617188 100.710938 C 357.550781 100.449219 357.492188 100.1875 357.425781 99.925781 "/>
</g>
<g clip-path="url(#clip4)" clip-rule="nonzero">
<path style=" stroke:none;fill-rule:nonzero;fill:rgb(22.349548%,22.749329%,24.708557%);fill-opacity:1;" d="M 272.054688 259.195312 L 249.964844 259.261719 L 238.917969 259.300781 L 227.875 259.410156 L 227.875 259.765625 L 238.917969 259.871094 L 249.964844 259.910156 L 272.054688 259.976562 L 294.144531 259.894531 L 305.191406 259.851562 L 316.234375 259.738281 L 316.234375 259.4375 L 305.191406 259.324219 L 294.144531 259.277344 Z M 262.789062 85.664062 L 254.808594 85.664062 L 254.808594 86.445312 L 262.789062 86.445312 Z M 266.949219 83.832031 L 266.949219 83.046875 L 261.867188 83.046875 L 261.867188 83.832031 Z M 259.890625 83.046875 L 254.808594 83.046875 L 254.808594 83.832031 L 259.890625 83.832031 Z M 266.949219 80.4375 L 254.808594 80.4375 L 254.808594 81.21875 L 266.949219 81.21875 Z M 272.398438 25.867188 C 273.53125 25.867188 274.449219 24.949219 274.449219 23.816406 C 274.449219 22.6875 273.53125 21.769531 272.398438 21.769531 C 271.265625 21.769531 270.347656 22.6875 270.347656 23.816406 C 270.347656 24.949219 271.265625 25.867188 272.398438 25.867188 Z M 160.90625 25.867188 C 162.039062 25.867188 162.957031 24.949219 162.957031 23.816406 C 162.957031 22.6875 162.039062 21.769531 160.90625 21.769531 C 159.773438 21.769531 158.855469 22.6875 158.855469 23.816406 C 158.855469 24.949219 159.773438 25.867188 160.90625 25.867188 Z M 80.765625 87.363281 L 72.78125 87.363281 L 72.78125 88.144531 L 80.765625 88.144531 Z M 84.921875 85.53125 L 84.921875 84.746094 L 79.839844 84.746094 L 79.839844 85.53125 Z M 77.863281 84.746094 L 72.78125 84.746094 L 72.78125 85.53125 L 77.863281 85.53125 Z M 84.921875 82.136719 L 72.78125 82.136719 L 72.78125 82.917969 L 84.921875 82.917969 Z M 51.90625 25.867188 C 53.039062 25.867188 53.957031 24.949219 53.957031 23.816406 C 53.957031 22.6875 53.039062 21.769531 51.90625 21.769531 C 50.773438 21.769531 49.855469 22.6875 49.855469 23.816406 C 49.855469 24.949219 50.773438 25.867188 51.90625 25.867188 Z M 37.316406 144.9375 L 38.101562 144.9375 L 38.101562 144.101562 L 49.027344 144.101562 L 49.027344 144.9375 L 49.8125 144.9375 L 49.8125 144.101562 L 60.742188 144.101562 L 60.742188 144.9375 L 61.523438 144.9375 L 61.523438 144.101562 L 72.453125 144.101562 L 72.453125 144.9375 L 73.238281 144.9375 L 73.238281 144.101562 L 84.164062 144.101562 L 84.164062 144.9375 L 84.949219 144.9375 L 84.949219 144.101562 L 88.519531 144.101562 L 88.519531 143.316406 L 84.949219 143.316406 L 84.949219 142.480469 L 84.164062 142.480469 L 84.164062 143.316406 L 73.238281 143.316406 L 73.238281 142.480469 L 72.453125 142.480469 L 72.453125 143.316406 L 61.523438 143.316406 L 61.523438 142.480469 L 60.742188 142.480469 L 60.742188 143.316406 L 49.8125 143.316406 L 49.8125 142.480469 L 49.027344 142.480469 L 49.027344 143.316406 L 38.101562 143.316406 L 38.101562 142.480469 L 37.316406 142.480469 L 37.316406 143.316406 L 33.824219 143.316406 L 33.824219 144.101562 L 37.316406 144.101562 Z M 291.9375 114.855469 C 291.9375 114.425781 291.585938 114.074219 291.152344 114.074219 L 189.828125 114.074219 C 189.390625 114.074219 189.042969 114.425781 189.042969 114.855469 C 189.042969 115.289062 189.390625 115.640625 189.828125 115.640625 L 291.152344 115.640625 C 291.585938 115.640625 291.9375 115.289062 291.9375 114.855469 Z M 269.023438 226.320312 L 263.796875 226.320312 C 263.359375 226.320312 263.011719 226.671875 263.011719 227.101562 C 263.011719 227.535156 263.359375 227.886719 263.796875 227.886719 L 269.023438 227.886719 C 269.457031 227.886719 269.808594 227.535156 269.808594 227.101562 C 269.808594 226.671875 269.457031 226.320312 269.023438 226.320312 Z M 270.453125 221.984375 C 270.453125 221.550781 270.101562 221.199219 269.667969 221.199219 L 264.4375 221.199219 C 264.007812 221.199219 263.65625 221.550781 263.65625 221.984375 C 263.65625 222.414062 264.007812 222.765625 264.4375 222.765625 L 269.667969 222.765625 C 270.101562 222.765625 270.453125 222.414062 270.453125 221.984375 Z M 271.738281 211.738281 C 271.738281 211.308594 271.390625 210.957031 270.957031 210.957031 L 265.726562 210.957031 C 265.292969 210.957031 264.941406 211.308594 264.941406 211.738281 C 264.941406 212.175781 265.292969 212.523438 265.726562 212.523438 L 270.957031 212.523438 C 271.390625 212.523438 271.738281 212.175781 271.738281 211.738281 Z M 272.382812 206.621094 C 272.382812 206.191406 272.035156 205.835938 271.597656 205.835938 L 266.371094 205.835938 C 265.9375 205.835938 265.585938 206.191406 265.585938 206.621094 C 265.585938 207.054688 265.9375 207.40625 266.371094 207.40625 L 271.597656 207.40625 C 272.035156 207.40625 272.382812 207.054688 272.382812 206.621094 Z M 273.03125 201.503906 C 273.03125 201.066406 272.675781 200.71875 272.246094 200.71875 L 267.015625 200.71875 C 266.582031 200.71875 266.230469 201.066406 266.230469 201.503906 C 266.230469 201.933594 266.582031 202.285156 267.015625 202.285156 L 272.246094 202.285156 C 272.675781 202.285156 273.03125 201.933594 273.03125 201.503906 Z M 198.664062 198.476562 C 198.585938 199.113281 199.039062 199.636719 199.679688 199.636719 C 200.320312 199.636719 200.90625 199.113281 200.984375 198.476562 C 201.066406 197.835938 200.613281 197.316406 199.972656 197.316406 C 199.332031 197.316406 198.75 197.835938 198.664062 198.476562 Z M 208.125 126.347656 C 208.046875 126.988281 208.5 127.503906 209.140625 127.503906 C 209.78125 127.503906 210.367188 126.988281 210.445312 126.347656 C 210.523438 125.707031 210.070312 125.1875 209.429688 125.1875 C 208.789062 125.1875 208.207031 125.707031 208.125 126.347656 Z M 219.734375 153.882812 C 219.300781 153.882812 218.949219 154.230469 218.949219 154.667969 C 218.949219 155.097656 219.300781 155.449219 219.734375 155.449219 L 229.34375 155.449219 C 229.777344 155.449219 230.128906 155.097656 230.128906 154.667969 C 230.128906 154.230469 229.777344 153.882812 229.34375 153.882812 Z M 275.96875 178.140625 C 275.96875 177.710938 275.613281 177.359375 275.183594 177.359375 L 269.953125 177.359375 C 269.523438 177.359375 269.167969 177.710938 269.167969 178.140625 C 269.167969 178.574219 269.523438 178.925781 269.953125 178.925781 L 275.183594 178.925781 C 275.613281 178.925781 275.96875 178.574219 275.96875 178.140625 Z M 276.609375 173.023438 C 276.609375 172.589844 276.257812 172.238281 275.828125 172.238281 L 270.597656 172.238281 C 270.164062 172.238281 269.8125 172.589844 269.8125 173.023438 C 269.8125 173.453125 270.164062 173.804688 270.597656 173.804688 L 275.828125 173.804688 C 276.257812 173.804688 276.609375 173.453125 276.609375 173.023438 Z M 277.253906 167.902344 C 277.253906 167.46875 276.902344 167.117188 276.46875 167.117188 L 271.242188 167.117188 C 270.808594 167.117188 270.457031 167.46875 270.457031 167.902344 C 270.457031 168.335938 270.808594 168.683594 271.242188 168.683594 L 276.46875 168.683594 C 276.902344 168.683594 277.253906 168.335938 277.253906 167.902344 Z M 277.898438 162.78125 C 277.898438 162.347656 277.546875 162 277.113281 162 L 271.886719 162 C 271.453125 162 271.101562 162.347656 271.101562 162.78125 C 271.101562 163.214844 271.453125 163.566406 271.886719 163.566406 L 277.113281 163.566406 C 277.546875 163.566406 277.898438 163.214844 277.898438 162.78125 Z M 279.1875 152.542969 C 279.1875 152.105469 278.835938 151.757812 278.402344 151.757812 L 273.171875 151.757812 C 272.742188 151.757812 272.390625 152.105469 272.390625 152.542969 C 272.390625 152.972656 272.742188 153.324219 273.171875 153.324219 L 278.402344 153.324219 C 278.835938 153.324219 279.1875 152.972656 279.1875 152.542969 Z M 279.832031 147.421875 C 279.832031 146.988281 279.476562 146.636719 279.046875 146.636719 L 273.816406 146.636719 C 273.386719 146.636719 273.03125 146.988281 273.03125 147.421875 C 273.03125 147.851562 273.386719 148.203125 273.816406 148.203125 L 279.046875 148.203125 C 279.476562 148.203125 279.832031 147.851562 279.832031 147.421875 Z M 280.472656 142.300781 C 280.472656 141.867188 280.125 141.519531 279.691406 141.519531 L 274.464844 141.519531 C 274.027344 141.519531 273.679688 141.867188 273.679688 142.300781 C 273.679688 142.734375 274.027344 143.085938 274.464844 143.085938 L 279.691406 143.085938 C 280.125 143.085938 280.472656 142.734375 280.472656 142.300781 Z M 281.117188 137.179688 C 281.117188 136.75 280.769531 136.394531 280.332031 136.394531 L 275.105469 136.394531 C 274.671875 136.394531 274.324219 136.75 274.324219 137.179688 C 274.324219 137.613281 274.671875 137.964844 275.105469 137.964844 L 280.332031 137.964844 C 280.769531 137.964844 281.117188 137.613281 281.117188 137.179688 Z M 281.761719 132.058594 C 281.761719 131.625 281.410156 131.273438 280.976562 131.273438 L 275.75 131.273438 C 275.316406 131.273438 274.964844 131.625 274.964844 132.058594 C 274.964844 132.492188 275.316406 132.839844 275.75 132.839844 L 280.976562 132.839844 C 281.410156 132.839844 281.761719 132.492188 281.761719 132.058594 Z M 161.59375 135.734375 L 165.28125 135.550781 C 165.460938 133.402344 166.082031 131.421875 167.101562 130.917969 C 166.015625 130.804688 164.960938 130.835938 164.160156 131.1875 C 164.109375 128.46875 163.03125 127.023438 162.359375 125.3125 C 162.347656 127.265625 162.878906 126.667969 162.675781 129.285156 C 162.558594 130.734375 162.855469 132.222656 162.515625 133.636719 C 162.335938 134.386719 161.988281 135.070312 161.59375 135.734375 Z M 166.070312 135.511719 L 169.140625 135.359375 C 168.910156 133.011719 168.15625 131.582031 167.613281 131.582031 C 167.054688 131.582031 166.28125 133.078125 166.070312 135.511719 Z M 169.199219 136.140625 L 166.015625 136.296875 C 166.011719 136.480469 166.007812 136.667969 166.007812 136.863281 C 166.007812 140.085938 166.957031 142.140625 167.613281 142.140625 C 168.265625 142.140625 169.21875 140.085938 169.21875 136.863281 C 169.21875 136.613281 169.207031 136.375 169.199219 136.140625 Z M 95.246094 167.640625 C 94.394531 162.039062 96.03125 156.105469 99.636719 151.734375 C 100.957031 150.128906 102.589844 148.609375 102.996094 146.570312 C 103.414062 144.472656 102.417969 142.382812 101.960938 140.292969 C 101.09375 136.300781 102.328125 131.910156 105.152344 128.957031 C 107.320312 126.691406 110.320312 125.253906 112.148438 122.707031 C 113.683594 120.570312 114.222656 117.910156 115.273438 115.503906 C 118.222656 108.753906 125.683594 104.261719 133.03125 104.808594 C 135.074219 102.269531 139.027344 101.078125 142.238281 101.644531 C 145.445312 102.210938 148.300781 104.03125 150.800781 106.125 C 158.65625 104.921875 168.535156 112.414062 171.28125 131.851562 C 170.542969 131.628906 169.511719 131.335938 168.425781 131.121094 C 169.453125 131.992188 170.003906 134.488281 170.003906 136.863281 C 170.003906 139.800781 169.164062 142.925781 167.613281 142.925781 C 166.058594 142.925781 165.222656 139.800781 165.222656 136.863281 C 165.222656 136.6875 165.226562 136.511719 165.230469 136.339844 L 163.457031 136.425781 C 163.796875 136.605469 164.050781 137.277344 164.050781 138.082031 C 164.050781 139.027344 163.699219 139.792969 163.269531 139.792969 C 162.839844 139.792969 162.492188 139.027344 162.492188 138.082031 C 162.492188 137.300781 162.730469 136.648438 163.058594 136.445312 L 161.089844 136.542969 C 160.625 137.273438 160.152344 138.007812 159.832031 138.808594 C 158.378906 142.484375 160.441406 146.65625 159.863281 150.570312 C 159.496094 153.027344 158.121094 155.207031 157.375 157.574219 C 156.324219 160.9375 157.0625 165.585938 158.613281 168.753906 L 147.730469 168.753906 C 147.050781 166.191406 146.171875 163.867188 146.074219 161.21875 C 145.351562 163.988281 145.035156 166.515625 144.792969 169.371094 C 143.453125 165.757812 142.566406 162.242188 142.476562 158.394531 C 142.09375 161.476562 141.964844 164.558594 141.582031 167.640625 Z M 168.792969 273.410156 C 169.996094 274.921875 171.316406 276.351562 172.761719 277.652344 C 174.199219 278.957031 175.796875 280.113281 177.558594 281 C 178.441406 281.425781 179.375 281.769531 180.339844 282.011719 C 181.324219 282.226562 182.269531 282.328125 183.222656 282.464844 C 185.132812 282.707031 187.046875 282.945312 188.960938 283.117188 C 192.792969 283.480469 196.632812 283.71875 200.484375 283.789062 C 200.582031 283.789062 200.664062 283.714844 200.667969 283.621094 C 200.671875 283.523438 200.59375 283.441406 200.496094 283.433594 C 198.582031 283.328125 196.667969 283.171875 194.757812 282.996094 C 192.847656 282.832031 190.9375 282.644531 189.035156 282.429688 C 187.128906 282.203125 185.222656 281.984375 183.324219 281.722656 C 182.375 281.582031 181.410156 281.464844 180.519531 281.265625 C 179.617188 281.03125 178.742188 280.703125 177.898438 280.296875 C 174.519531 278.625 171.746094 275.890625 169.304688 272.988281 C 168.078125 271.53125 166.941406 269.988281 165.875 268.402344 C 164.796875 266.824219 163.78125 265.195312 162.871094 263.519531 L 162.867188 263.511719 C 162.828125 263.441406 162.742188 263.414062 162.667969 263.449219 C 162.59375 263.488281 162.5625 263.574219 162.601562 263.648438 C 164.316406 267.105469 166.378906 270.382812 168.792969 273.410156 Z M 142.542969 226.035156 C 142.109375 225.777344 141.707031 225.472656 141.320312 225.144531 C 140.9375 224.8125 140.585938 224.4375 140.234375 224.039062 C 140.191406 223.996094 140.121094 223.976562 140.0625 224 C 139.984375 224.03125 139.945312 224.121094 139.976562 224.195312 C 140.382812 225.226562 141.179688 226.105469 142.125 226.703125 C 142.605469 227 143.109375 227.238281 143.636719 227.40625 C 144.082031 227.546875 144.53125 227.640625 144.988281 227.699219 C 146.496094 231.136719 148.066406 234.550781 149.644531 237.957031 C 151.445312 241.746094 153.257812 245.53125 155.121094 249.292969 C 156.988281 253.050781 158.890625 256.789062 160.882812 260.488281 C 160.925781 260.574219 161.03125 260.605469 161.113281 260.5625 C 161.203125 260.519531 161.238281 260.414062 161.195312 260.324219 C 160.269531 258.445312 159.363281 256.554688 158.464844 254.660156 L 155.746094 248.988281 L 150.351562 237.625 C 148.550781 233.839844 146.792969 230.03125 145.054688 226.21875 C 144.183594 224.3125 143.335938 222.398438 142.511719 220.472656 C 141.695312 218.546875 140.859375 216.621094 140.246094 214.628906 L 140.246094 214.621094 C 140.222656 214.542969 140.140625 214.5 140.0625 214.523438 C 139.980469 214.542969 139.933594 214.628906 139.960938 214.707031 C 141.121094 218.769531 142.804688 222.625 144.449219 226.488281 C 144.542969 226.703125 144.640625 226.914062 144.734375 227.128906 C 144.453125 227.007812 144.164062 226.886719 143.890625 226.757812 C 143.425781 226.535156 142.96875 226.304688 142.542969 226.035156 Z M 163.128906 151.621094 C 163.425781 151.808594 163.757812 151.929688 164.097656 152.011719 C 164.441406 152.078125 164.789062 152.113281 165.132812 152.078125 C 165.300781 152.066406 165.46875 152.035156 165.636719 152.007812 C 165.800781 151.960938 165.964844 151.917969 166.121094 151.851562 C 166.167969 151.832031 166.207031 151.785156 166.214844 151.734375 C 166.226562 151.648438 166.167969 151.570312 166.082031 151.554688 C 165.4375 151.457031 164.847656 151.386719 164.273438 151.25 C 163.988281 151.183594 163.710938 151.09375 163.433594 151 C 163.160156 150.902344 162.882812 150.773438 162.625 150.648438 L 162.589844 150.628906 C 162.539062 150.605469 162.476562 150.605469 162.421875 150.636719 C 162.335938 150.6875 162.308594 150.796875 162.359375 150.878906 C 162.554688 151.214844 162.828125 151.429688 163.128906 151.621094 Z M 325.40625 284.652344 L 311.824219 264.246094 L 311.824219 264.070312 L 302.003906 263.957031 L 292.179688 263.925781 L 272.53125 263.855469 L 252.886719 263.941406 L 243.0625 263.984375 L 233.238281 264.097656 L 233.238281 264.394531 L 233.46875 264.398438 L 234.242188 264.917969 L 236.84375 269.386719 L 232.265625 268.734375 C 232.292969 268.722656 232.324219 268.710938 232.351562 268.699219 C 232.527344 268.609375 232.679688 268.472656 232.8125 268.332031 C 232.9375 268.175781 233.050781 268.011719 233.121094 267.824219 C 233.1875 267.636719 233.234375 267.441406 233.210938 267.234375 C 233.207031 267.199219 233.191406 267.15625 233.164062 267.128906 C 233.09375 267.042969 232.96875 267.035156 232.886719 267.105469 L 232.878906 267.113281 C 232.734375 267.234375 232.628906 267.355469 232.519531 267.472656 C 232.410156 267.585938 232.316406 267.707031 232.21875 267.820312 C 232.125 267.941406 232.023438 268.054688 231.929688 268.1875 C 231.832031 268.316406 231.730469 268.445312 231.632812 268.605469 L 231.628906 268.613281 C 231.628906 268.617188 231.628906 268.621094 231.625 268.628906 L 231.578125 268.558594 L 227.0625 267.601562 C 227.089844 267.492188 227.121094 267.382812 227.140625 267.277344 C 227.222656 266.902344 227.242188 266.519531 227.246094 266.136719 C 227.238281 265.75 227.207031 265.367188 227.121094 264.992188 C 227.042969 264.621094 226.929688 264.25 226.753906 263.90625 C 226.722656 263.847656 226.660156 263.808594 226.59375 263.808594 C 226.492188 263.804688 226.40625 263.886719 226.40625 263.988281 C 226.402344 264.363281 226.421875 264.722656 226.429688 265.078125 L 226.460938 266.148438 L 226.484375 267.214844 C 226.488281 267.445312 226.492188 267.679688 226.496094 267.914062 L 224.242188 267.59375 C 216.40625 266.417969 208.5625 265.230469 200.796875 263.699219 C 198.863281 263.3125 196.917969 262.921875 195.042969 262.371094 C 194.585938 262.226562 194.113281 262.074219 193.722656 261.871094 C 193.507812 261.753906 193.472656 261.730469 193.316406 261.480469 L 192.917969 260.878906 C 192.398438 260.039062 191.878906 259.199219 191.375 258.347656 C 189.347656 254.949219 187.359375 251.515625 185.378906 248.089844 L 178.363281 235.914062 L 262.148438 235.914062 L 266.761719 253.546875 L 300.003906 253.546875 L 295.394531 235.914062 L 345.875 235.914062 C 350.804688 235.914062 354.9375 232.210938 355.480469 227.324219 L 367.628906 117.832031 C 368.261719 112.113281 363.785156 107.109375 358.023438 107.109375 L 187.914062 107.109375 C 182.988281 107.109375 178.851562 110.8125 178.3125 115.703125 L 167.671875 211.613281 C 168.675781 214.546875 169.503906 217.410156 170.035156 220.039062 L 181.570312 116.066406 C 181.929688 112.828125 184.65625 110.390625 187.914062 110.390625 L 358.023438 110.390625 C 359.863281 110.390625 361.554688 111.144531 362.777344 112.515625 C 364.007812 113.882812 364.570312 115.644531 364.367188 117.46875 L 352.222656 226.960938 C 351.863281 230.195312 349.132812 232.632812 345.875 232.632812 L 269.027344 232.632812 C 269.109375 232.515625 269.164062 232.378906 269.164062 232.222656 C 269.164062 231.789062 268.8125 231.441406 268.378906 231.441406 L 263.152344 231.441406 C 262.71875 231.441406 262.367188 231.789062 262.367188 232.222656 C 262.367188 232.378906 262.421875 232.515625 262.503906 232.632812 L 176.472656 232.632812 L 173.503906 227.488281 C 173.464844 227.421875 173.375 227.394531 173.300781 227.433594 C 173.230469 227.472656 173.203125 227.566406 173.242188 227.636719 L 176.011719 232.632812 L 175.921875 232.632812 C 176.488281 233.75 177.050781 234.839844 177.609375 235.914062 L 177.820312 235.914062 L 178.996094 238.039062 L 184.84375 248.394531 C 186.804688 251.839844 188.765625 255.28125 190.773438 258.703125 C 191.273438 259.558594 191.789062 260.410156 192.308594 261.261719 L 192.726562 261.898438 C 192.8125 262.015625 192.820312 262.089844 192.988281 262.242188 C 193.128906 262.386719 193.25 262.441406 193.375 262.511719 C 193.863281 262.769531 194.34375 262.921875 194.828125 263.078125 C 196.753906 263.660156 198.699219 264.0625 200.648438 264.464844 C 208.449219 265.964844 216.304688 267.101562 224.152344 268.230469 L 235.941406 269.847656 L 247.75 271.296875 C 247.84375 271.304688 247.933594 271.238281 247.945312 271.144531 C 247.960938 271.046875 247.890625 270.957031 247.792969 270.945312 L 243.429688 270.324219 L 247.289062 264.527344 L 252.886719 264.550781 L 272.53125 264.636719 L 292.179688 264.566406 L 302.003906 264.535156 L 306.75 264.480469 L 320.175781 284.652344 L 315.203125 284.652344 L 308.078125 276.59375 L 304.789062 278.75 L 310.878906 284.652344 L 291.144531 284.652344 L 309.089844 273.269531 L 283.808594 273.269531 L 287.609375 280.25 C 287.898438 280.785156 287.679688 281.457031 287.125 281.710938 C 286.097656 281.636719 284.9375 281.15625 283.953125 280.472656 C 283.953125 280.445312 283.960938 280.429688 283.953125 280.40625 C 283.527344 279.414062 283.519531 278.3125 283.382812 277.183594 C 283.324219 276.613281 283.199219 276.03125 282.976562 275.46875 C 282.753906 274.90625 282.433594 274.394531 282.0625 273.933594 C 281.300781 273.03125 280.382812 272.316406 279.453125 271.683594 C 278.527344 271.046875 277.597656 270.453125 276.765625 269.722656 C 276.710938 269.675781 276.628906 269.671875 276.570312 269.71875 C 276.507812 269.773438 276.496094 269.863281 276.550781 269.929688 C 277.273438 270.824219 278.1875 271.527344 279.0625 272.21875 C 279.933594 272.90625 280.800781 273.582031 281.457031 274.425781 C 281.792969 274.835938 282.082031 275.277344 282.28125 275.75 C 282.488281 276.226562 282.589844 276.75 282.699219 277.285156 C 282.859375 278.15625 282.960938 279.121094 283.339844 280 C 282.859375 279.585938 282.445312 279.132812 282.160156 278.660156 L 279.660156 274.484375 L 275.21875 273.410156 C 275.207031 273.398438 275.203125 273.386719 275.191406 273.378906 C 275.152344 273.332031 275.089844 273.308594 275.027344 273.328125 C 275.011719 273.335938 275.003906 273.351562 274.992188 273.355469 L 274.933594 273.34375 L 268.683594 278.175781 C 268.691406 278.140625 268.699219 278.105469 268.699219 278.070312 C 268.738281 277.742188 268.714844 277.417969 268.667969 277.09375 C 268.613281 276.765625 268.527344 276.449219 268.390625 276.148438 C 268.257812 275.851562 268.09375 275.5625 267.871094 275.320312 C 267.828125 275.277344 267.761719 275.253906 267.703125 275.265625 C 267.601562 275.28125 267.535156 275.378906 267.550781 275.480469 C 267.601562 275.789062 267.675781 276.074219 267.730469 276.363281 C 267.78125 276.652344 267.847656 276.9375 267.894531 277.222656 C 267.953125 277.507812 267.988281 277.796875 268.039062 278.085938 C 268.066406 278.257812 268.09375 278.4375 268.121094 278.613281 L 263.15625 282.453125 C 261.742188 283.542969 260.109375 284.277344 258.386719 284.652344 L 253.5625 284.652344 L 247.449219 283.804688 C 247.820312 283.472656 248.160156 283.082031 248.394531 282.625 C 248.699219 282.0625 248.84375 281.402344 248.746094 280.785156 C 248.734375 280.710938 248.671875 280.644531 248.59375 280.632812 C 248.496094 280.621094 248.40625 280.6875 248.390625 280.785156 C 248.308594 281.339844 248.113281 281.835938 247.8125 282.273438 C 247.683594 282.457031 247.535156 282.625 247.378906 282.789062 C 247.371094 282.429688 247.324219 282.074219 247.238281 281.722656 C 247.078125 281.050781 246.796875 280.40625 246.371094 279.875 C 246.332031 279.824219 246.261719 279.800781 246.199219 279.824219 C 246.121094 279.855469 246.085938 279.941406 246.113281 280.023438 C 246.339844 280.625 246.503906 281.226562 246.574219 281.84375 C 246.644531 282.457031 246.640625 283.074219 246.546875 283.675781 C 246.542969 283.695312 246.550781 283.714844 246.550781 283.734375 L 204.421875 283.433594 L 202.578125 284.652344 L 163.984375 284.652344 C 164.082031 284.914062 164.179688 285.175781 164.277344 285.433594 L 367.691406 285.433594 L 367.691406 284.652344 Z M 47.628906 284.652344 L 47.628906 285.433594 L 135.328125 285.433594 C 140.644531 285.433594 142.171875 284.652344 142.171875 284.652344 C 142.863281 284.464844 143.527344 284.210938 144.152344 283.90625 C 148.65625 281.707031 151.367188 276.582031 150.082031 271.304688 L 135.074219 209.601562 C 133.859375 204.621094 129.398438 201.113281 124.269531 201.113281 L 40.417969 201.113281 C 33.214844 201.113281 27.914062 207.855469 29.613281 214.851562 L 44.621094 276.554688 C 45.597656 280.558594 48.679688 283.605469 52.515625 284.652344 Z M 169.382812 296.886719 C 169.382812 296.886719 169.363281 297.03125 169.320312 297.277344 L 169.324219 297.277344 C 168.777344 300.550781 163.78125 324.027344 132.792969 324.027344 C 121.449219 324.027344 113.25 322.152344 108.683594 320.742188 C 110.304688 330.011719 118.390625 337.058594 128.132812 337.058594 L 187.742188 337.058594 C 202.503906 337.058594 216.90625 330.914062 216.90625 330.914062 L 212.277344 358.328125 L 242.667969 358.328125 C 242.667969 358.328125 246.1875 330.914062 247.703125 312.519531 C 248.589844 301.75 240.652344 298.296875 233.917969 297.277344 L 288.597656 297.277344 L 285.046875 327.824219 L 296.28125 329.683594 L 300.050781 297.277344 L 340.515625 297.277344 L 345.222656 337.789062 L 356.898438 339.71875 L 351.96875 297.277344 L 367.691406 297.277344 L 367.691406 296.496094 L 169.179688 296.496094 C 169.308594 296.746094 169.382812 296.886719 169.382812 296.886719 Z M 101.488281 296.496094 L 47.628906 296.496094 L 47.628906 297.277344 L 73.539062 297.277344 C 73.515625 297.394531 73.527344 297.515625 73.496094 297.632812 L 73.390625 298.421875 C 73.308594 298.949219 73.28125 299.484375 73.230469 300.011719 L 73.140625 301.609375 L 73.097656 302.402344 L 73.078125 302.804688 C 73.085938 302.9375 72.988281 303.0625 73.242188 303.222656 C 73.53125 303.121094 73.460938 302.980469 73.503906 302.855469 L 73.574219 302.457031 L 73.996094 300.101562 C 74.0625 299.570312 74.160156 299.046875 74.203125 298.519531 L 74.285156 297.726562 C 74.277344 297.574219 74.339844 297.433594 74.3125 297.277344 L 101.503906 297.277344 C 101.496094 297.019531 101.492188 296.757812 101.488281 296.496094 Z M 234.726562 126.34375 C 234.726562 125.914062 234.371094 125.5625 233.941406 125.5625 L 222.261719 125.5625 C 221.828125 125.5625 221.476562 125.914062 221.476562 126.34375 C 221.476562 126.78125 221.828125 127.128906 222.261719 127.128906 L 233.941406 127.128906 C 234.371094 127.128906 234.726562 126.78125 234.726562 126.34375 Z M 203.734375 126.347656 C 203.652344 126.988281 204.105469 127.503906 204.746094 127.503906 C 205.386719 127.503906 205.972656 126.988281 206.050781 126.347656 C 206.132812 125.707031 205.679688 125.1875 205.039062 125.1875 C 204.402344 125.1875 203.816406 125.707031 203.734375 126.347656 Z M 200.355469 127.503906 C 199.714844 127.503906 199.261719 126.988281 199.34375 126.347656 C 199.421875 125.707031 200.007812 125.1875 200.648438 125.1875 C 201.289062 125.1875 201.742188 125.707031 201.660156 126.347656 C 201.582031 126.988281 200.996094 127.503906 200.355469 127.503906 "/>
</g>
<g clip-path="url(#clip5)" clip-rule="nonzero">
<path style=" stroke:none;fill-rule:nonzero;fill:rgb(100%,100%,100%);fill-opacity:1;" d="M 310.191406 253.546875 L 303.875 253.546875 L 299.261719 235.914062 L 295.394531 235.914062 L 300.003906 253.546875 L 233.914062 253.546875 C 230.578125 253.546875 227.875 256.25 227.875 259.585938 L 316.234375 259.585938 C 316.234375 256.25 313.53125 253.546875 310.191406 253.546875 Z M 96.460938 253.132812 L 83.4375 253.132812 C 82.605469 253.132812 81.902344 253.757812 81.804688 254.585938 L 71.265625 345.863281 C 71.152344 346.835938 71.917969 347.695312 72.898438 347.695312 L 85.921875 347.695312 C 86.753906 347.695312 87.457031 347.070312 87.554688 346.238281 L 98.09375 254.964844 C 98.207031 253.988281 97.441406 253.132812 96.460938 253.132812 Z M 290.554688 285.023438 L 295.839844 285.023438 L 307.871094 277.121094 L 314.859375 285.023438 L 318.761719 285.023438 L 309.089844 273.269531 Z M 363.203125 107.109375 L 358.023438 107.109375 C 363.785156 107.109375 368.261719 112.113281 367.628906 117.832031 L 355.480469 227.324219 C 354.9375 232.210938 350.804688 235.914062 345.875 235.914062 L 351.054688 235.914062 C 355.976562 235.914062 360.117188 232.210938 360.660156 227.324219 L 372.804688 117.832031 C 373.441406 112.113281 368.957031 107.109375 363.203125 107.109375 Z M 234.726562 126.34375 C 234.726562 125.914062 234.371094 125.5625 233.941406 125.5625 L 222.261719 125.5625 C 221.828125 125.5625 221.476562 125.914062 221.476562 126.34375 C 221.476562 126.78125 221.828125 127.128906 222.261719 127.128906 L 233.941406 127.128906 C 234.371094 127.128906 234.726562 126.78125 234.726562 126.34375 Z M 205.039062 125.1875 C 204.402344 125.1875 203.816406 125.707031 203.734375 126.347656 C 203.652344 126.988281 204.105469 127.503906 204.746094 127.503906 C 205.386719 127.503906 205.972656 126.988281 206.050781 126.347656 C 206.132812 125.707031 205.679688 125.1875 205.039062 125.1875 Z M 200.648438 125.1875 C 200.007812 125.1875 199.421875 125.707031 199.34375 126.347656 C 199.261719 126.988281 199.714844 127.503906 200.355469 127.503906 C 200.996094 127.503906 201.582031 126.988281 201.660156 126.347656 C 201.742188 125.707031 201.289062 125.1875 200.648438 125.1875 Z M 210.445312 126.347656 C 210.367188 126.988281 209.78125 127.503906 209.140625 127.503906 C 208.5 127.503906 208.046875 126.988281 208.125 126.347656 C 208.207031 125.707031 208.789062 125.1875 209.429688 125.1875 C 210.070312 125.1875 210.523438 125.707031 210.445312 126.347656 "/>
</g>
</g>
</svg>
