<?xml version="1.0" encoding="UTF-8"?>
<svg width="274.62mm" height="195.31mm" version="1.1" viewBox="0 0 973.06511 692.03361" xmlns="http://www.w3.org/2000/svg" xmlns:xlink="http://www.w3.org/1999/xlink">
 <defs>
  <symbol id="a">
   <path d="m39 10v18l25 15v7l-25-9v14l6 4v6l-9-3-9 3v-6l6-4v-14l-25 9v-7l25-15v-18a3 3 0 0 1 6 0z"/>
  </symbol>
 </defs>
 <g transform="translate(-12.857 -18.076)">
  <rect x="12.857" y="18.076" width="973.07" height="692.03" ry="0" fill="#8bc34a" fill-rule="evenodd"/>
  <g transform="translate(-3.1272)">
   <path d="m343.47 633.44h318.09c1.7255 0 3.7592-1.514 3.1146-3.1146l-15.568-38.66c-0.64452-1.6006-7.2272-3.1146-8.9527-3.1146h-275.28c-1.7255 0-8.3081 1.514-8.9526 3.1146l-15.568 38.66c-0.64458 1.6006 1.3891 3.1146 3.1146 3.1146z" fill="#1a1a1a" fill-rule="evenodd"/>
   <path d="m476.77 497.59h51.485v99.126c-16.137 6.7098-32.915 7.7328-51.485 0z" fill="#333" fill-rule="evenodd"/>
   <path d="m523.47 497.59h4.7902v98.481c-0.94782 1.1778-2.8445 2.7257-4.8338 2.7446z" fill="#212121" fill-rule="evenodd"/>
   <rect transform="scale(1,-1)" x="142.91" y="-540.03" width="719.21" height="444.5" ry="30.824" fill="#fff" fill-rule="evenodd"/>
   <rect x="155.89" y="109.76" width="692.79" height="373.14" fill="#c5e1a5" fill-rule="evenodd"/>
   <rect x="216.79" y="109.76" width="571.45" height="373.14" fill="#f9f9f9" fill-rule="evenodd"/>
   <path d="m142.8 94.918v406.99h719.42v-406.99h-719.42zm16.958 21.033h682.39v363.24h-682.39v-363.24z" fill="#4d4d4d" fill-rule="evenodd"/>
   <rect x="248.52" y="140.42" width="227.97" height="35.879" ry="4.7209" fill="#ff7043" fill-rule="evenodd"/>
   <rect x="248.52" y="188.46" width="227.97" height="180.24" ry="4.7487" fill="#ff7043" fill-rule="evenodd"/>
   <rect x="248.09" y="381.65" width="32.085" height="32.21" ry="2.3725" fill="#ffab91" fill-rule="evenodd"/>
   <rect x="291.15" y="381.65" width="32.085" height="32.21" ry="2.3725" fill="#ffab91" fill-rule="evenodd"/>
   <rect x="500.98" y="140.42" width="173.67" height="80.239" ry="2.1007" fill="#ff7043" fill-rule="evenodd"/>
   <rect x="686" y="140.42" width="81.142" height="80.239" ry="2.1007" fill="#ff7043" fill-rule="evenodd"/>
   <rect x="500.98" y="281.84" width="265.46" height="185.64" ry="4.8603" fill="#e6e6e6" fill-rule="evenodd"/>
   <rect transform="matrix(.4804 .87705 -.87705 .4804 0 0)" x="499.86" y="-587.81" width="2.1047" height="9.3507" ry=".68487" fill="#fff" fill-rule="evenodd"/>
   <rect transform="matrix(.96196 .2732 -.2732 .96196 0 0)" x="763.1" y="-50.294" width="2.1406" height="25.688" ry=".67948" fill="#fff" fill-rule="evenodd"/>
   <circle cx="736.77" cy="203.29" r="3.8353" fill="#fff" fill-rule="evenodd"/>
   <circle cx="736.77" cy="203.29" r="2.2601" fill="#fff" fill-rule="evenodd"/>
   <circle cx="715.2" cy="203.29" r="3.8353" fill="#fff" fill-rule="evenodd"/>
   <circle cx="715.2" cy="203.29" r="2.2601" fill="#fff" fill-rule="evenodd"/>
   <rect transform="rotate(-90)" x="-198.78" y="710.11" width="1.808" height="34.351" ry=".69698" fill="#fff" fill-rule="evenodd"/>
   <rect transform="rotate(-90)" x="-185.05" y="705.2" width="2.2923" height="37.773" ry=".76642" fill="#fff" fill-rule="evenodd"/>
   <rect transform="matrix(.93028 -.36685 .36685 .93028 0 0)" x="618.66" y="441.72" width="1.808" height="16.207" ry=".83865" fill="#fff" fill-rule="evenodd"/>
   <rect transform="matrix(.96839 -.24944 .24944 .96839 0 0)" x="636.43" y="334.46" width="2.2714" height="20.717" ry=".45199" fill="#fff" fill-rule="evenodd"/>
   <rect transform="rotate(-90)" x="-167.09" y="700" width="2.4537" height="48.001" ry=".97393" fill="#fff" fill-rule="evenodd"/>
   <rect x="711.09" y="165.42" width="1.7435" height="18.725" ry=".77279" fill="#fff" fill-rule="evenodd"/>
   <rect transform="rotate(-90)" x="-175.98" y="703.1" width="1.9857" height="41.828" ry=".24113" fill="#fff" fill-rule="evenodd"/>
   <path d="m608.97 195.71c-0.35428-7.2e-4 -0.67101 0.0241-0.92919 0.0466-2.8656 0.25083-4.5651 3.1969-4.5651 5.3514s1.681 3.9762 5.1966 7.8818c3.1727 3.5247 3.2791 3.6298 4.4546 4.8443 1.021-1.0224 1.244-1.2354 4.6992-4.8443 3.634-3.7955 5.1966-5.7273 5.1966-7.8818s-1.6995-5.1005-4.565-5.3514c-1.1804-0.10338-3.5837-0.25435-5.2085 2.2224-1.2694-1.935-3.014-2.2661-4.2793-2.2691z" color="#000000" color-rendering="auto" fill="#fff" image-rendering="auto" shape-rendering="auto" solid-color="#000000" style="isolation:auto;mix-blend-mode:normal"/>
   <rect x="507.28" y="146.77" width="66.885" height="66.885" ry="2.1007" fill="#fff" fill-rule="evenodd"/>
   <rect x="580.57" y="148.91" width="86.762" height="10.764" ry="2.1007" fill="#fff" fill-rule="evenodd"/>
   <rect x="581.54" y="165.21" width="66.539" height="9.7852" ry="2.1007" fill="#fff" fill-rule="evenodd"/>
   <path d="m631.97 195.71c-0.35428-7.2e-4 -0.67101 0.0241-0.9292 0.0466-2.8656 0.25083-4.5651 3.1969-4.5651 5.3514s1.681 3.9762 5.1966 7.8818c3.1727 3.5247 3.2791 3.6298 4.4546 4.8443 1.021-1.0224 1.244-1.2354 4.6992-4.8443 3.634-3.7955 5.1966-5.7273 5.1966-7.8818s-1.6995-5.1005-4.565-5.3514c-1.1804-0.10338-3.5836-0.25435-5.2085 2.2224-1.2694-1.935-3.014-2.2661-4.2793-2.2691z" color="#000000" color-rendering="auto" fill="#fff" image-rendering="auto" shape-rendering="auto" solid-color="#000000" style="isolation:auto;mix-blend-mode:normal"/>
   <path d="m655.29 195.71c-0.35428-7.2e-4 -0.67101 0.0241-0.92919 0.0466-2.8656 0.25083-4.5651 3.1969-4.5651 5.3514s1.681 3.9762 5.1966 7.8818c3.1727 3.5247 3.2791 3.6298 4.4546 4.8443 1.021-1.0224 1.244-1.2354 4.6992-4.8443 3.634-3.7955 5.1966-5.7273 5.1966-7.8818s-1.6995-5.1005-4.565-5.3514c-1.1804-0.10338-3.5837-0.25435-5.2085 2.2224-1.2694-1.935-3.014-2.2661-4.2793-2.2691z" color="#000000" color-rendering="auto" fill="#fff" image-rendering="auto" shape-rendering="auto" solid-color="#000000" style="isolation:auto;mix-blend-mode:normal"/>
   <rect x="512.72" y="291.05" width="229.24" height="7.5511" ry="1.8224" fill="#fff" fill-rule="evenodd"/>
   <rect x="512.72" y="313.21" width="224.17" height="8.0807" ry="1.9502" fill="#fff" fill-rule="evenodd"/>
   <rect x="512.72" y="326.91" width="216.33" height="8.0807" ry="1.9502" fill="#fff" fill-rule="evenodd"/>
   <rect x="512.72" y="341.05" width="117.61" height="8.0807" ry="1.9502" fill="#fff" fill-rule="evenodd"/>
   <rect x="512.72" y="364.86" width="224.17" height="8.0807" ry="1.9502" fill="#fff" fill-rule="evenodd"/>
   <rect x="512.72" y="378.56" width="216.33" height="8.0807" ry="1.9502" fill="#fff" fill-rule="evenodd"/>
   <rect x="512.72" y="392.7" width="117.61" height="8.0807" ry="1.9502" fill="#fff" fill-rule="evenodd"/>
   <rect x="512.72" y="417.14" width="224.17" height="8.0807" ry="1.9502" fill="#fff" fill-rule="evenodd"/>
   <rect x="512.72" y="430.85" width="216.33" height="8.0807" ry="1.9502" fill="#fff" fill-rule="evenodd"/>
   <rect x="512.72" y="444.98" width="117.61" height="8.0807" ry="1.9502" fill="#fff" fill-rule="evenodd"/>
   <g transform="matrix(1.8266 0 0 1.8266 -152.02 -52.418)" fill-rule="evenodd">
    <rect x="266.06" y="144.19" width="39.528" height="71.513" ry="1.6449" fill="#263238"/>
    <rect x="267.28" y="150.04" width="37.229" height="60.564" fill="#64dd17"/>
    <ellipse cx="278.62" cy="146.96" rx=".97481" ry="1.089" fill="#546e7a"/>
    <rect x="281.52" y="146.1" width="11.539" height="1.7768" ry=".37016" fill="#546e7a"/>
    <path d="m286.13 162.62c-0.84085 0.41577-1.2771 1.471-2.1867 1.8816-2.4396 1.7279-5.5456 1.232-8.3379 1.3147-0.40904 7.729 0.95227 16.197 10.573 19.113 9.729-2.0235 10.774-10.551 10.672-17.888 0.40828-1.3059-0.45007-1.3483-1.4627-1.2212-2.8841 0.0912-6.3173-0.0668-8.2741-2.5383-0.23912-0.31401-0.53954-0.71531-0.9835-0.66254z" fill="#fff"/>
    <path d="m286 164.5c-1.8848 2.0734-4.73 2.7291-7.4181 2.6354-0.62991 0.14197-1.9587-0.4062-1.6318 0.65061 0.30238 6.3233 0.39998 13.015 9.3565 15.585 8.8967-1.9653 9.0662-9.3033 9.2114-15.592 0.29418-1.1362-1.3417-0.43372-2.0296-0.65129-2.6769 0.0695-5.4503-0.76189-7.2614-2.8502l-0.15713 0.15461z" fill="#64dd17"/>
    <path d="m302.13 165 0.39193 0.39619c0.38615 0.39021 0.3861 1.0186 0 1.4089l-11.631 11.755c-0.38613 0.39027-1.0078 0.39027-1.394 0l-0.39197-0.39617c-0.38615-0.39028-0.38615-1.0186 0-1.4089l11.631-11.755c0.38609-0.39026 1.0078-0.39026 1.394-1e-5z" fill="#fff"/>
    <path d="m284.47 171.87 0.2826-0.2856c0.38614-0.39027 1.0078-0.39027 1.394 0l5.0794 5.1338c0.38613 0.39027 0.38613 1.0186 0 1.4089l-0.28262 0.2856c-0.38606 0.39027-1.0078 0.39027-1.394 0l-5.0794-5.1338c-0.38614-0.39026-0.38614-1.0186 0-1.4089z" fill="#fff"/>
    <rect x="258.15" y="144.39" width="3.8237" height="71.956" ry="1.1962" fill="#263238"/>
   </g>
   <rect x="257.06" y="148.19" width="191.41" height="7.7818" ry="1.878" fill="#f4511e" fill-rule="evenodd"/>
   <rect x="255.8" y="146.46" width="191.41" height="7.7818" ry="1.878" fill="#fff" fill-rule="evenodd"/>
   <path d="m336.77 456.58c-0.75074 0.75074-7.7581-1.015-8.8068-0.84895s-7.1674 4.0108-8.1134 3.5288c-0.946-0.48201-1.432-7.6921-1.914-8.6381-0.482-0.94599-6.0294-5.5772-5.8633-6.6258 0.16609-1.0486 6.8731-3.7389 7.6238-4.4897 0.75074-0.75074 3.441-7.4577 4.4897-7.6238s5.6798 5.3813 6.6258 5.8633c0.94599 0.482 8.1561 0.96805 8.6381 1.914 0.482 0.94599-3.3628 7.0648-3.5288 8.1134-0.16608 1.0486 1.5997 8.056 0.84895 8.8068z" fill="#ffc107" fill-rule="evenodd"/>
   <path d="m368.14 456.58c-0.75075 0.75074-7.7581-1.015-8.8068-0.84895s-7.1674 4.0108-8.1134 3.5288-1.432-7.6921-1.914-8.6381c-0.48201-0.94599-6.0294-5.5772-5.8633-6.6258s6.8731-3.7389 7.6238-4.4897 3.441-7.4577 4.4897-7.6238 5.6798 5.3813 6.6258 5.8633c0.94599 0.482 8.1561 0.96805 8.6381 1.914s-3.3628 7.0648-3.5288 8.1134 1.5997 8.056 0.84895 8.8068z" fill="#ffc107" fill-rule="evenodd"/>
   <path d="m401.81 456.58c-0.75075 0.75074-7.7581-1.015-8.8068-0.84895s-7.1674 4.0108-8.1134 3.5288-1.432-7.6921-1.914-8.6381c-0.48201-0.94599-6.0294-5.5772-5.8633-6.6258s6.8731-3.7389 7.6238-4.4897 3.441-7.4577 4.4897-7.6238 5.6798 5.3813 6.6258 5.8633c0.94599 0.482 8.1561 0.96805 8.6381 1.914s-3.3628 7.0648-3.5288 8.1134 1.5997 8.056 0.84895 8.8068z" fill="#ffc107" fill-rule="evenodd"/>
   <path d="m434.56 456.58c-0.75074 0.75074-7.7581-1.015-8.8068-0.84895s-7.1674 4.0108-8.1134 3.5288-1.432-7.6921-1.914-8.6381-6.0294-5.5772-5.8633-6.6258 6.8731-3.7389 7.6238-4.4897c0.75075-0.75074 3.441-7.4577 4.4897-7.6238s5.6798 5.3813 6.6258 5.8633c0.94599 0.482 8.1561 0.96805 8.6381 1.914 0.48201 0.94599-3.3628 7.0648-3.5288 8.1134s1.5997 8.056 0.84895 8.8068z" fill="#ffc107" fill-rule="evenodd"/>
   <path d="m466.85 456.58c-0.75074 0.75074-7.7581-1.015-8.8068-0.84895s-7.1674 4.0108-8.1134 3.5288-1.432-7.6921-1.914-8.6381-6.0294-5.5772-5.8633-6.6258 6.8731-3.7389 7.6238-4.4897c0.75075-0.75074 3.441-7.4577 4.4897-7.6238s5.6798 5.3813 6.6258 5.8633c0.94599 0.482 8.1561 0.96805 8.6381 1.914 0.48201 0.94599-3.3628 7.0648-3.5288 8.1134s1.5997 8.056 0.84895 8.8068z" fill="#ffe082" fill-rule="evenodd"/>
   <circle cx="559.04" cy="250.67" r="18.918" fill="#ff7043" fill-rule="evenodd"/>
   <circle cx="606.01" cy="250.67" r="18.918" fill="#ff7043" fill-rule="evenodd"/>
   <circle cx="655.59" cy="250.67" r="18.918" fill="#ff7043" fill-rule="evenodd"/>
   <circle cx="703.21" cy="250.67" r="18.918" fill="#ff7043" fill-rule="evenodd"/>
   <text transform="scale(1.1249 .889)" x="529.72784" y="294.73578" fill="#ffffff" font-family="'MS UI Gothic'" font-size="36.575px" letter-spacing="0px" stroke-width="1px" word-spacing="0px" style="line-height:125%" xml:space="preserve"><tspan x="529.72784" y="294.73578">$</tspan></text>
   <use transform="matrix(.39083 .23219 -.23219 .39083 650.56 227.91)" width="100%" height="100%" fill="#ffffff" stroke="#000000" xlink:href="#a"/>
   <rect x="257.06" y="162.55" width="148.36" height="7.5511" ry="1.8224" fill="#f4511e" fill-rule="evenodd"/>
   <rect x="255.8" y="160.82" width="148.36" height="7.5511" ry="1.8224" fill="#fff" fill-rule="evenodd"/>
   <rect transform="matrix(.81391 .58099 -.58134 .81366 0 0)" x="593.58" y="-129.46" width="13.463" height="21.538" ry="0" fill="#fff" fill-rule="evenodd"/>
   <rect transform="matrix(.81391 .58099 -.58134 .81366 0 0)" x="597.38" y="-134.13" width="6.0982" height="5.3846" ry="0" fill="#f4511e" fill-rule="evenodd"/>
   <g transform="matrix(1.8266 0 0 1.8266 -154.63 -58.941)">
    <path d="m393.55 162.51-3.1884 0.91988 2.1604 3.1667 3.8162 1.0729s-0.0608-3.1593-0.13135-3.2097c-0.0706-0.0504-2.6568-1.9498-2.6568-1.9498z" fill="#fff" fill-rule="evenodd"/>
   </g>
   <ellipse transform="matrix(.81391 .58099 -.58134 .81366 0 0)" cx="600.33" cy="-128.98" rx="2.7882" ry="2.7878" fill="#ff7043" fill-rule="evenodd"/>
   <g transform="matrix(1.8266 0 0 1.8266 -154.63 -58.941)" fill="#fff" fill-rule="evenodd">
    <rect x="463.54" y="164.63" width="11.932" height="9.7358"/>
    <rect transform="matrix(.79945 -.60073 .51955 .85444 0 0)" x="321.25" y="419.29" width=".98852" height="5.909"/>
    <rect transform="matrix(-.76455 -.64456 -.56659 .824 0 0)" x="-478.56" y="-173.81" width=".98852" height="5.909"/>
   </g>
   <path d="m709.54 246.33 0.28911 0.29225c0.28485 0.28785 0.2848 0.75138 0 1.0393l-8.5795 8.6714c-0.28483 0.28788-0.74343 0.28788-1.0282 0l-0.28915-0.29224c-0.28485-0.2879-0.28485-0.75141 0-1.0393l8.5796-8.6714c0.2848-0.28787 0.74344-0.28787 1.0283 0z" fill="#ff7043" fill-rule="evenodd"/>
   <path d="m696.5 251.39 0.20845-0.21067c0.28484-0.28789 0.74343-0.28789 1.0283 0l3.7468 3.787c0.28481 0.28788 0.28481 0.75139 0 1.0393l-0.20847 0.21066c-0.28478 0.28788-0.74343 0.28788-1.0283 0l-3.7468-3.787c-0.28483-0.28787-0.28483-0.75136 0-1.0393z" fill="#ff7043" fill-rule="evenodd"/>
   <path d="m343.47 633.44h318.09c1.7255 0 3.7592-0.31605 3.1146-0.65017l-15.568-8.0702c-0.64452-0.33411-7.2272-0.65016-8.9527-0.65016h-275.28c-1.7255 0-8.3081 0.31605-8.9526 0.65016l-15.568 8.0702c-0.64458 0.33412 1.3891 0.65017 3.1146 0.65017z" fill="#424242" fill-rule="evenodd"/>
   <rect x="515.08" y="195.26" width="50.916" height="6.8496" fill="#ff7043" fill-rule="evenodd"/>
   <rect x="522.16" y="174.02" width="36.531" height="23.06" fill="#ff7043" fill-rule="evenodd"/>
   <path d="m519.37 162.1h42.925l5.7529 14.211h-55.537z" fill="#ff7043" fill-rule="evenodd"/>
   <rect x="530.23" y="180" width="8.4395" height="15.311" fill="#fff" fill-rule="evenodd"/>
   <rect x="540.88" y="180" width="8.4395" height="15.311" fill="#fff" fill-rule="evenodd"/>
   <rect transform="rotate(-90)" x="-198.78" y="710.11" width="2.4537" height="34.351" ry=".69698" fill="#fff" fill-rule="evenodd"/>
   <rect x="720.37" y="165.42" width="1.7435" height="18.725" ry=".77279" fill="#fff" fill-rule="evenodd"/>
   <rect x="729.49" y="165.42" width="1.7435" height="18.725" ry=".77279" fill="#fff" fill-rule="evenodd"/>
   <rect x="739.18" y="165.42" width="1.7435" height="18.725" ry=".77279" fill="#fff" fill-rule="evenodd"/>
  </g>
 </g>
</svg>
