<?xml version="1.0" standalone="no"?>
<!DOCTYPE svg PUBLIC "-//W3C//DTD SVG 20010904//EN"
 "http://www.w3.org/TR/2001/REC-SVG-20010904/DTD/svg10.dtd">
<svg version="1.0" xmlns="http://www.w3.org/2000/svg"
 width="1000.000000pt" height="689.000000pt" viewBox="0 0 1000.000000 689.000000"
 preserveAspectRatio="xMidYMid meet">
<metadata>
Created by potrace 1.16, written by Peter Selinger 2001-2019
</metadata>
<g transform="translate(0.000000,689.000000) scale(0.100000,-0.100000)"
fill="#000000" stroke="none">
<path d="M1850 6603 c-40 -14 -40 -8 -40 -805 l0 -768 -435 0 c-465 0 -479 -1
-505 -49 -6 -13 -10 -256 -10 -711 l0 -691 25 -24 c23 -24 30 -25 138 -25
l115 0 11 -47 c7 -27 34 -93 61 -148 181 -373 617 -581 1070 -510 162 25 192
36 204 73 16 45 30 52 116 52 68 0 80 3 134 36 85 51 161 112 237 191 l67 68
4 83 5 82 -35 0 c-46 0 -96 32 -116 74 -14 30 -16 102 -16 613 0 559 1 579 20
611 11 18 34 41 52 52 32 19 52 20 546 20 l512 0 0 -155 0 -155 489 0 c479 0
489 0 515 21 l26 20 0 1028 c0 871 -2 1030 -14 1047 -14 19 -43 19 -1588 21
-865 1 -1580 -1 -1588 -4z m3073 -294 c14 -6 30 -22 36 -36 15 -34 15 -892 0
-926 -6 -14 -22 -30 -36 -36 -34 -16 -892 -15 -927 0 -14 7 -30 25 -36 42 -6
19 -10 185 -10 461 0 461 1 468 50 493 34 17 887 19 923 2z m-1105 -51 c3 -22
-2 -28 -20 -33 -13 -3 -396 -4 -852 -3 -761 3 -830 4 -839 20 -8 12 -7 21 2
32 12 15 97 16 860 14 l846 -3 3 -27z m-3 -208 l0 -25 -851 -3 c-751 -2 -853
0 -858 13 -3 8 -3 22 0 30 5 13 107 15 858 13 l851 -3 0 -25z m-895 -185 c6
-8 10 -22 8 -32 -3 -17 -26 -18 -407 -18 -379 0 -405 1 -415 18 -9 15 -7 21 8
33 29 21 788 21 806 -1z m558 -171 c3 -36 33 -51 53 -28 15 18 43 18 59 -1 9
-11 8 -20 -6 -43 -22 -39 -13 -62 26 -62 27 0 30 -3 30 -29 0 -26 -4 -30 -32
-33 -39 -4 -49 -30 -23 -58 33 -36 -9 -77 -45 -45 -25 23 -60 12 -60 -19 0
-30 -23 -49 -50 -41 -14 4 -20 15 -20 35 0 36 -33 50 -60 25 -36 -32 -78 9
-45 45 26 28 16 54 -23 58 -28 3 -32 7 -32 33 0 25 4 29 28 29 21 0 32 7 40
25 7 14 8 25 2 25 -5 0 -14 10 -21 21 -9 18 -8 25 8 41 19 19 20 19 43 0 32
-26 60 -17 60 17 0 35 8 43 40 39 20 -2 26 -9 28 -34z m-942 -147 c6 -17 -120
-347 -138 -358 -14 -9 -38 7 -38 25 0 9 45 129 121 324 9 24 46 30 55 9z
m-256 -30 c0 -14 -20 -43 -54 -76 l-55 -54 55 -61 c55 -62 66 -92 38 -103 -17
-6 -150 117 -160 150 -8 25 122 165 154 166 17 1 22 -5 22 -22z m443 -46 c37
-38 67 -77 67 -88 0 -10 -31 -51 -68 -92 -50 -55 -73 -73 -85 -68 -30 11 -19
44 34 101 58 64 61 48 -23 143 -38 43 -42 73 -9 73 10 0 48 -31 84 -69z m1087
-426 c6 -8 10 -22 8 -32 -3 -17 -43 -18 -852 -18 -808 0 -849 1 -860 18 -9 15
-7 21 8 33 30 21 1678 21 1696 -1z m-2142 -214 c2 -13 -2 -28 -10 -32 -7 -5
-158 -9 -335 -9 -315 0 -323 0 -333 21 -9 15 -8 24 1 35 10 12 64 14 343 12
l331 -3 3 -24z m1253 3 c9 -11 10 -20 2 -32 -9 -15 -48 -17 -408 -17 -360 0
-399 2 -408 17 -8 12 -7 21 2 32 12 14 60 16 406 16 346 0 394 -2 406 -16z
m-1252 -212 c6 -11 6 -24 0 -35 -9 -16 -38 -17 -339 -17 -301 0 -330 1 -339
17 -6 11 -6 24 0 35 9 17 34 18 339 18 305 0 330 -1 339 -18z m101 -211 c104
-6 105 -6 105 -31 l0 -25 -434 -3 c-425 -2 -461 0 -461 29 0 4 7 15 16 23 13
14 57 16 342 15 180 -1 374 -4 432 -8z m-308 -261 l3 -55 35 0 c35 0 35 0 38
50 4 69 8 80 27 65 12 -10 15 -39 15 -140 0 -101 -3 -130 -15 -140 -19 -16
-23 -4 -27 70 l-3 55 -35 0 -35 0 -3 -55 c-4 -74 -8 -86 -27 -70 -19 16 -22
259 -3 278 18 18 27 2 30 -58z m276 48 c3 -13 -3 -18 -22 -18 l-26 0 0 -123
c0 -68 -3 -127 -7 -130 -3 -4 -12 -2 -20 4 -9 8 -13 43 -13 130 0 111 -1 119
-19 119 -11 0 -23 5 -27 11 -11 19 18 29 76 27 43 -2 56 -7 58 -20z m80 5 c5
-10 20 -60 32 -112 l23 -95 25 105 c24 103 34 122 57 112 14 -5 32 -264 20
-283 -16 -26 -28 13 -33 107 l-5 98 -27 -100 c-17 -65 -31 -100 -40 -100 -9 0
-23 36 -41 105 l-27 105 -1 -107 c-1 -87 -4 -108 -15 -108 -8 0 -17 4 -20 8
-6 10 10 258 19 271 9 16 23 13 33 -6z m717 -373 c24 -25 30 -39 30 -75 0 -37
-6 -50 -33 -77 -27 -28 -40 -33 -78 -33 -40 0 -50 5 -80 38 l-34 37 -153 0
c-162 0 -193 8 -185 46 3 18 15 19 170 24 l167 5 33 31 c18 17 40 34 48 37 31
13 84 -3 115 -33z m-657 -64 c9 -44 -8 -46 -449 -46 -366 0 -420 2 -433 16
-19 19 -20 26 -4 42 9 9 117 12 447 10 422 -3 436 -4 439 -22z m581 -415 c113
-80 68 -260 -69 -278 -53 -7 -121 26 -146 72 l-19 35 -425 0 c-234 0 -431 4
-438 9 -8 4 -12 19 -10 32 l3 24 430 3 430 2 24 45 c43 82 147 108 220 56z"/>
<path d="M4012 6258 c-17 -17 -17 -879 0 -896 17 -17 879 -17 896 0 17 17 17
879 0 896 -17 17 -879 17 -896 0z m569 -198 c126 -63 184 -198 145 -335 -32
-110 -148 -195 -266 -195 -101 0 -199 61 -248 154 -22 42 -27 64 -26 126 0 78
12 112 61 177 26 36 97 81 146 94 51 13 140 3 188 -21z"/>
<path d="M4389 6027 c-57 -21 -97 -54 -126 -105 -51 -85 -33 -212 39 -279 36
-34 108 -63 158 -63 50 0 122 29 158 63 65 60 88 172 53 253 -12 27 -32 59
-44 72 -54 58 -167 86 -238 59z"/>
<path d="M3408 5595 c-57 -31 -39 -126 26 -133 33 -4 72 19 81 48 11 33 -13
77 -47 89 -17 6 -31 11 -32 11 -1 -1 -13 -7 -28 -15z"/>
<path d="M7240 5919 c-95 -15 -193 -41 -265 -71 -148 -61 -307 -159 -374 -232
-20 -21 -34 -26 -73 -26 -53 0 -102 -20 -112 -45 -3 -9 -6 -44 -6 -77 0 -54
-7 -75 -59 -182 -62 -125 -95 -236 -107 -357 l-6 -66 -39 42 c-22 24 -53 48
-69 55 -38 16 -38 27 3 44 l32 14 -48 1 c-26 1 -61 -6 -76 -14 -25 -13 -31
-13 -41 0 -20 24 -73 28 -162 11 -46 -9 -100 -16 -119 -16 l-34 0 25 -20 c14
-11 30 -20 36 -20 6 0 -8 -19 -31 -42 -64 -65 -89 -139 -90 -263 0 -129 21
-185 69 -185 33 0 129 40 140 59 4 6 13 11 19 11 7 0 -10 -16 -37 -35 -62 -44
-35 -48 45 -7 40 20 63 41 88 79 l34 52 29 -40 c15 -21 33 -39 38 -39 6 0 17
18 26 41 13 31 21 39 38 37 19 -3 21 -8 18 -70 -2 -59 0 -68 20 -82 12 -9 25
-16 29 -16 10 0 57 113 65 155 3 20 9 34 11 31 3 -2 17 -40 32 -83 15 -43 41
-105 58 -136 l31 -57 -94 0 -93 0 6 -30 c7 -39 -20 -103 -52 -120 -29 -15 -86
9 -105 45 -11 20 -21 25 -50 25 -32 0 -45 -8 -107 -72 l-70 -73 -16 -90 c-20
-112 -47 -301 -47 -332 0 -20 11 -29 64 -53 36 -16 82 -32 104 -36 35 -5 41
-10 51 -44 6 -21 11 -107 11 -194 0 -103 4 -156 11 -156 5 0 31 5 56 12 47 11
98 48 394 286 l116 93 -29 91 c-16 50 -27 95 -26 100 2 5 39 25 83 45 83 36
115 58 115 77 0 7 -10 44 -23 83 l-24 71 37 -24 c117 -78 324 -134 519 -140
124 -4 124 -4 142 -33 30 -50 119 -92 119 -56 0 19 41 29 89 21 43 -7 73 10
96 54 21 41 19 50 -14 50 -20 0 -34 -8 -46 -26 -25 -38 -78 -58 -120 -44 -18
6 -41 20 -50 30 -10 11 -29 20 -41 20 -43 0 -44 70 -3 136 54 88 200 84 252
-7 19 -34 26 -39 60 -39 83 0 260 115 401 260 147 151 225 285 279 478 18 64
21 104 21 237 0 145 -3 168 -27 248 -108 350 -386 586 -771 652 -95 16 -267
18 -356 4z m-350 -543 c0 -15 -7 -26 -19 -29 -17 -4 -19 -16 -23 -110 -3 -101
-4 -107 -32 -136 l-30 -31 30 -31 c28 -29 29 -35 32 -135 3 -90 6 -106 23
-114 11 -6 19 -21 19 -35 0 -22 -2 -23 -30 -13 -50 17 -60 41 -60 146 0 91 -1
96 -30 129 -16 18 -30 41 -30 50 0 8 14 31 30 50 29 33 30 37 30 132 0 93 1
100 26 125 34 33 64 35 64 2z m652 13 c32 -17 48 -71 48 -160 0 -72 3 -84 25
-111 31 -37 32 -68 1 -97 -21 -20 -24 -32 -28 -126 -3 -92 -6 -107 -27 -128
-12 -14 -33 -27 -47 -30 -20 -3 -24 0 -24 19 0 13 4 24 9 24 5 0 17 7 25 16
12 12 16 37 16 111 0 88 2 99 26 130 l26 34 -23 25 c-21 23 -25 38 -29 132 -5
99 -7 108 -27 117 -14 6 -23 18 -23 32 0 25 19 30 52 12z m-397 -210 l45 -41
46 41 c37 32 55 41 84 41 53 0 90 -39 90 -93 0 -38 -7 -47 -108 -149 l-107
-109 -113 114 c-96 98 -112 119 -112 146 0 46 46 91 94 91 29 0 46 -9 81 -41z"/>
<path d="M3277 4318 c-40 -31 -49 -132 -17 -186 17 -28 25 -33 53 -30 25 2 36
11 50 38 48 92 -18 229 -86 178z"/>
<path d="M8842 3578 c-127 -463 -242 -953 -277 -1188 -18 -123 -19 -140 -1
-140 9 0 17 27 25 93 30 231 158 822 277 1276 25 95 43 175 41 177 -2 2 -31
-96 -65 -218z"/>
<path d="M7630 3730 c-228 -28 -585 -147 -869 -290 -91 -45 -91 -45 -91 -25 0
23 -10 19 -116 -41 -55 -31 -148 -81 -209 -111 -62 -31 -130 -74 -155 -98 -58
-55 -106 -73 -160 -58 -45 12 -45 12 -54 -38 l-6 -36 61 -7 c34 -3 92 -6 128
-6 95 0 111 -6 111 -41 l0 -29 161 0 c128 0 159 3 151 13 -15 18 -25 84 -14
91 5 3 13 -9 16 -27 3 -18 13 -43 22 -55 l15 -22 468 0 c441 0 469 -1 484 -18
24 -26 21 -65 -6 -90 -23 -22 -28 -22 -355 -22 -183 0 -332 -3 -332 -6 0 -3
19 -37 42 -77 127 -217 263 -570 341 -887 84 -335 137 -741 137 -1043 l0 -108
-47 3 -48 3 -11 215 c-19 349 -54 591 -129 895 -75 305 -174 577 -303 838
l-69 138 26 13 c23 13 17 14 -72 21 -54 4 -100 6 -102 4 -2 -2 44 -363 102
-802 57 -440 102 -801 99 -805 -3 -3 -9 -2 -13 1 -3 4 -53 361 -110 794 -57
434 -105 794 -108 801 -3 9 -62 12 -249 12 l-244 0 -6 54 c-11 83 -27 125 -20
51 3 -33 8 -70 11 -82 5 -21 2 -23 -36 -23 -23 0 -41 -2 -41 -5 0 -3 23 -47
52 -97 l52 -93 3 -120 4 -120 -39 85 c-21 47 -51 109 -66 139 l-28 53 -47 -94
c-60 -120 -141 -228 -224 -301 l-66 -58 6 -49 c5 -46 4 -51 -30 -85 -41 -41
-90 -47 -128 -16 -22 18 -26 18 -53 4 -17 -9 -36 -21 -43 -29 -22 -21 -252
-131 -356 -169 -241 -88 -474 -129 -727 -129 -191 1 -301 16 -453 61 l-88 26
-90 -28 c-60 -20 -89 -34 -90 -44 -1 -25 -68 121 -69 150 0 14 -11 47 -25 73
-14 26 -23 51 -20 55 2 5 -6 46 -19 92 -89 310 -121 797 -66 999 23 82 64 266
62 274 -4 12 27 101 60 175 16 35 26 66 23 69 -6 6 -56 -104 -80 -178 -10 -30
-24 -64 -31 -75 -15 -25 -53 -190 -58 -253 -2 -26 -10 -108 -18 -182 -16 -167
-14 -370 6 -514 19 -132 72 -350 93 -382 8 -13 13 -29 10 -36 -4 -13 40 -149
52 -158 4 -3 21 -37 39 -77 l33 -71 -15 -69 c-52 -234 -96 -620 -96 -845 l0
-108 -50 0 -50 0 0 123 c0 211 37 560 85 792 13 65 23 121 21 122 -1 2 -43 -6
-92 -17 -196 -42 -362 -47 -559 -15 -44 7 -83 10 -87 6 -11 -9 -65 -327 -83
-481 -8 -74 -18 -209 -21 -300 -3 -91 -7 -180 -10 -198 l-5 -33 -83 3 c-78 3
-85 1 -126 -27 -51 -35 -70 -75 -70 -148 0 -66 27 -111 85 -144 l40 -23 2502
0 c1744 0 2510 3 2530 11 34 13 80 55 99 91 20 39 17 112 -6 158 -18 35 -66
80 -87 80 -4 0 -14 4 -22 9 -11 7 4 40 71 157 396 693 629 1208 758 1679 34
124 33 134 10 -125 -18 -204 -10 -490 14 -490 8 0 11 90 12 307 0 268 3 337
27 530 23 197 25 235 16 345 -12 153 -28 221 -79 323 -110 226 -374 335 -710
295z m-1330 -1107 c0 -5 -14 -59 -30 -122 l-30 -114 29 -61 c64 -136 170 -520
216 -780 44 -254 75 -568 75 -767 l0 -79 -50 0 c-45 0 -50 2 -50 23 0 84 -23
424 -35 527 -21 172 -61 396 -94 532 -42 168 -124 438 -133 438 -4 0 -8 -6 -8
-12 0 -24 -252 -973 -261 -982 -27 -29 -17 11 169 704 76 280 86 335 74 381
-12 46 -28 279 -19 279 3 0 20 -37 38 -82 l33 -82 17 59 c10 33 23 79 29 103
6 23 15 42 20 42 6 0 10 -3 10 -7z m-2044 -1327 c25 -25 34 -43 34 -68 0 -27
6 -38 25 -48 35 -19 31 -30 -9 -23 -26 4 -42 0 -62 -16 -41 -33 -89 -28 -130
13 -25 25 -34 43 -34 68 0 25 -8 42 -30 63 -37 35 -33 41 13 19 34 -16 36 -16
62 5 42 33 90 28 131 -13z m1604 -106 c175 -44 204 -64 167 -114 -18 -24 -37
-23 -181 18 -70 20 -135 36 -144 36 -40 0 -68 60 -40 88 17 17 26 16 198 -28z
m1090 -29 c12 -24 13 -41 1 -59 -5 -9 -64 -19 -172 -31 l-163 -17 -23 22 c-24
24 -22 58 5 70 17 8 224 30 299 33 32 1 45 -4 53 -18z"/>
<path d="M5570 2778 c-36 -23 -186 -113 -335 -201 -543 -322 -964 -546 -1258
-670 -71 -30 -125 -57 -120 -60 14 -8 174 -46 248 -58 104 -17 390 -14 519 6
235 35 439 101 661 212 178 89 185 95 185 145 0 32 7 47 35 75 30 30 40 34 73
31 20 -3 44 -8 53 -12 37 -16 240 203 305 329 58 112 60 126 27 183 -15 26
-32 50 -38 54 -5 4 -73 7 -150 7 l-140 0 -65 -41z"/>
<path d="M1420 2494 c0 -21 79 -208 140 -331 l65 -131 -118 110 c-65 61 -120
114 -122 119 -3 4 -24 22 -48 40 -23 18 46 -57 153 -167 165 -169 206 -218
269 -317 41 -65 105 -157 142 -206 l67 -88 -46 13 c-68 21 -214 18 -301 -6
-139 -39 -243 -105 -393 -248 -97 -94 -198 -212 -181 -212 5 0 26 23 47 50
102 133 255 262 398 334 113 58 215 81 322 73 122 -9 174 -31 230 -97 85 -100
301 -328 311 -329 6 -1 29 -19 50 -41 22 -23 65 -61 96 -85 l56 -44 7 107 c10
147 41 391 71 548 29 150 30 164 13 164 -42 0 -287 93 -423 160 -258 126 -495
294 -707 499 -54 52 -98 90 -98 85z"/>
</g>
</svg>
